<svg xmlns="http://www.w3.org/2000/svg" xmlns:xlink="http://www.w3.org/1999/xlink" xml:space="preserve" width="3450" height="3271" version="1.1" style="shape-rendering:geometricPrecision; text-rendering:geometricPrecision; image-rendering:optimizeQuality; fill-rule:evenodd; clip-rule:evenodd"><rect id="backgroundrect" width="100%" height="100%" x="0" y="0" fill="none" stroke="none"/>
 <defs>
  <style type="text/css">
   <![CDATA[
    .str2 {stroke:white;stroke-width:7.62;stroke-miterlimit:22.9256;stroke-opacity:0.200000}
    .str4 {stroke:white;stroke-width:7.62;stroke-miterlimit:22.9256;stroke-opacity:0.239216}
    .str0 {stroke:white;stroke-width:7.62;stroke-miterlimit:22.9256;stroke-opacity:0.290196}
    .str1 {stroke:#B3B3B3;stroke-width:7.62;stroke-miterlimit:22.9256;stroke-opacity:0.419608}
    .str3 {stroke:#D0E8E8;stroke-width:20;stroke-miterlimit:22.9256}
    .str5 {stroke:#71B9B9;stroke-width:7.62;stroke-miterlimit:22.9256}
    .fil2 {fill:#2A5252}
    .fil8 {fill:#71B9B9}
    .fil6 {fill:#99CCCC}
    .fil5 {fill:#D0E8E8}
    .fil11 {fill:white}
    .fil10 {fill:white;fill-rule:nonzero}
    .fil4 {fill:white;fill-opacity:0.200000}
    .fil7 {fill:white;fill-opacity:0.239216}
    .fil1 {fill:white;fill-opacity:0.290196}
    .fil0 {fill:white;fill-opacity:0.301961}
    .fil9 {fill:#2A5252;fill-opacity:0.400000}
    .fil3 {fill:#003333;fill-opacity:0.419608}
   ]]>
  </style>
 </defs>
 
<g class="currentLayer" style=""><title>Layer 1</title><g id="Layer_x0020_1" class="">
  <metadata id="CorelCorpID_0Corel-Layer" transform="translate(-5627.810546875,-7535.87939453125) "/>
  <g id="_877808752">
   <path class="fil0" d="M1780.2994531249997,130.6806054687504 c776.16,0 1405.38,638.73 1405.38,1426.66 c0,787.94 -629.22,1426.67 -1405.38,1426.67 c-776.16,0 -1405.38,-638.73 -1405.38,-1426.67 c0,-787.93 629.22,-1426.66 1405.38,-1426.66 z" id="svg_1"/>
   <path class="fil1 str0" d="M1744.0094531249997,2680.750605468749 c218.61,157.06 450.43,301.09 696.85,431.06 c-100.79,43.56 -208.29,84.29 -322.88,111.46 c-119.78,28.41 -248.85,41.84 -387.87,48.01 c-262.05,-24.69 -494.57,-79.22 -699.97,-159.12 c130.68,-60.36 255.75,-125.61 374.32,-198.56 c117.77,-72.46 230.42,-151.58 339.55,-232.85 z" id="svg_2"/>
   <path class="fil2" d="M2869.8894531250007,1530.6906054687497 c154.31,222.57 295.77,457.48 420.53,708.86 c-49.35,94.64 -99.06,187.8 -159.52,271.6 c-59.85,82.95 -127.55,159.46 -198.8,231.14 c-199.15,-203.36 -398.99,-405.69 -599.18,-607.68 c95.92,-94.31 188.34,-191.84 278.04,-292.19 c89.63,-100.27 174.12,-205.76 258.93,-311.73 z" id="svg_3"/>
   <path class="fil3 str1" d="M1742.2794531250001,434.16060546874996 c213.39,164.26 417.41,337.79 614.12,518.86 c-103.57,100.14 -205.49,201.91 -307.93,302.47 c-102.61,100.73 -204.02,203.02 -306.89,303.16 c-205.4,-196.84 -409.76,-394.72 -614.12,-592.6 c97.31,-92.93 194.05,-187.68 296.46,-276.06 c102.65,-88.59 209.22,-173.53 318.36,-255.83 z" id="svg_4"/>
   <path class="fil4 str2" d="M3305.6394531250007,824.2006054687499 c76.46,209.88 126.16,445.47 144.24,712.62 c-10.08,133.41 -20.92,261.46 -49.01,380.66 c-26.53,112.54 -69.16,217.43 -110.52,319.28 c-125.12,-251.38 -266.23,-486.97 -421.24,-708.51 c79.94,-110.08 161.15,-220.63 233.91,-336.42 c73.6,-117.14 137.97,-241.43 202.62,-367.63 z" id="svg_5"/>
   <path class="fil5 str3" d="M1126.069453125,960.5706054687507 c205.05,197.18 409.41,395.06 614.47,591.91 c-101.14,101.85 -204,202.66 -305.5,304.19 c-101.48,101.5 -202.63,203.7 -304.46,304.86 c-187.68,-187.24 -365.97,-383.06 -535.92,-587.79 c83.06,-107.68 165.61,-215.17 254.41,-317.56 c88.5,-102.06 183.15,-198.91 277,-295.61 z" id="svg_6"/>
   <path class="fil6" d="M2454.4094531250003,0.0006054687501091394 c189.07,98.76 360.06,215.71 515.07,348.76 c-102.52,101.17 -203.93,203.47 -306.54,304.19 c-102.44,100.57 -204.7,201.3 -306.54,302.81 c-196.71,-181.75 -400.73,-355.28 -614.12,-519.54 c110.87,-80.25 223.09,-160.18 341.29,-232.52 c118.85,-72.73 243.63,-138.88 370.84,-203.7 z" id="svg_7"/>
   <path class="fil2" d="M1132.319453125,2159.8206054687507 c195.33,179.7 397.95,352.2 607.87,517.84 c-109.48,81.27 -222.04,160.85 -339.56,233.54 c-118.14,73.07 -243.29,138.55 -373.96,199.25 c-186.29,-100.14 -355.9,-215.37 -509.51,-346.37 c105.3,-97.74 207.58,-198.49 309.66,-299.73 c101.93,-101.09 204.71,-201.99 305.5,-304.53 z" id="svg_8"/>
   <path class="fil6" d="M2357.7894531250004,953.0206054687496 c187.68,189.99 366.67,388.21 534.19,598.43 c-85.15,105.62 -169.91,211.19 -259.63,311.73 c-89.62,100.43 -182.46,197.53 -278.39,292.53 c-201.92,-200.96 -405.59,-399.19 -610.29,-597.06 c102.87,-100.14 203.93,-202.07 306.54,-302.81 c102.44,-100.56 204.36,-202.34 307.58,-302.82 z" id="svg_9"/>
   <path class="fil7 str4" d="M164.03945312500036,870.3806054687502 c124.08,250.68 267.27,481.82 427.14,696.5 c-79.24,111.8 -159.52,222.5 -232.51,339.17 c-73.37,117.27 -140.07,239.71 -206.8,362.83 c-83.06,-201.31 -136.23,-432.45 -151.87,-701.31 c12.51,-130.32 26.75,-256.14 54.91,-374.83 c26.79,-112.96 68.12,-218.8 109.13,-322.36 z" id="svg_10"/>
   <path class="fil8 str5" d="M1030.1394531249998,5.830605468750036 c250.58,127.23 484.14,270.92 707.62,425.58 c-109.13,81.97 -215.72,166.89 -318.01,255.15 c-102.43,88.37 -199.5,182.78 -296.46,276.06 c-205.06,-197.87 -406.64,-398.15 -607.18,-599.8 c75.07,-69.95 150.66,-139.98 235.99,-199.24 c86.13,-59.81 179.68,-110.43 278.04,-157.75 z" id="svg_11"/>
   <path class="fil8" d="M1742.2794531250001,1552.4806054687506 c204.71,197.87 408.72,396.09 610.99,596.37 c-96.62,94.31 -195.25,186.3 -297.16,274.69 c-102.09,88.55 -208.18,173.53 -315.92,255.83 c-209.92,-165.29 -412.89,-337.45 -607.87,-517.49 c101.84,-101.17 203.06,-203.62 304.81,-305.21 c101.58,-101.43 204,-202.34 305.15,-304.19 z" id="svg_12"/>
   <path class="fil9" d="M514.3694531250003,357.34060546875025 c200.89,201.3 402.82,401.58 607.87,599.11 c-93.84,97.4 -188.66,193.76 -276.65,295.61 c-88.63,102.6 -171.34,209.88 -254.06,317.22 c-160.22,-214.67 -303.41,-445.81 -427.14,-696.85 c47.27,-96.71 94.47,-191.36 153.62,-278.12 c58.11,-85.25 127.2,-161.52 196.36,-236.97 z" id="svg_13"/>
  </g>
  
 </g></g></svg>