<?xml version="1.0" encoding="UTF-8"?>
<!DOCTYPE svg PUBLIC "-//W3C//DTD SVG 1.1//EN" "http://www.w3.org/Graphics/SVG/1.1/DTD/svg11.dtd">
<!-- Creator: CorelDRAW 2017 -->
<svg xmlns="http://www.w3.org/2000/svg" xml:space="preserve" width="297mm" height="420mm" version="1.1" style="shape-rendering:geometricPrecision; text-rendering:geometricPrecision; image-rendering:optimizeQuality; fill-rule:evenodd; clip-rule:evenodd"
viewBox="0 0 29700 42000"
 xmlns:xlink="http://www.w3.org/1999/xlink">
 <defs>
  <style type="text/css">
   <![CDATA[
    .str2 {stroke:white;stroke-width:7.62;stroke-miterlimit:22.9256;stroke-opacity:0.200000}
    .str4 {stroke:white;stroke-width:7.62;stroke-miterlimit:22.9256;stroke-opacity:0.239216}
    .str0 {stroke:white;stroke-width:7.62;stroke-miterlimit:22.9256;stroke-opacity:0.290196}
    .str1 {stroke:#B3B3B3;stroke-width:7.62;stroke-miterlimit:22.9256;stroke-opacity:0.419608}
    .str3 {stroke:#D0E8E8;stroke-width:20;stroke-miterlimit:22.9256}
    .str5 {stroke:#71B9B9;stroke-width:7.62;stroke-miterlimit:22.9256}
    .fil2 {fill:#2A5252}
    .fil8 {fill:#71B9B9}
    .fil6 {fill:#99CCCC}
    .fil5 {fill:#D0E8E8}
    .fil11 {fill:white}
    .fil10 {fill:white;fill-rule:nonzero}
    .fil4 {fill:white;fill-opacity:0.200000}
    .fil7 {fill:white;fill-opacity:0.239216}
    .fil1 {fill:white;fill-opacity:0.290196}
    .fil0 {fill:white;fill-opacity:0.301961}
    .fil9 {fill:#2A5252;fill-opacity:0.400000}
    .fil3 {fill:#003333;fill-opacity:0.419608}
   ]]>
  </style>
 </defs>
 <g id="Layer_x0020_1">
  <metadata id="CorelCorpID_0Corel-Layer"/>
  <g id="_877808752">
   <path class="fil0" d="M7408.11 7666.56c776.16,0 1405.38,638.73 1405.38,1426.66 0,787.94 -629.22,1426.67 -1405.38,1426.67 -776.16,0 -1405.38,-638.73 -1405.38,-1426.67 0,-787.93 629.22,-1426.66 1405.38,-1426.66z"/>
   <path class="fil1 str0" d="M7371.82 10216.63c218.61,157.06 450.43,301.09 696.85,431.06 -100.79,43.56 -208.29,84.29 -322.88,111.46 -119.78,28.41 -248.85,41.84 -387.87,48.01 -262.05,-24.69 -494.57,-79.22 -699.97,-159.12 130.68,-60.36 255.75,-125.61 374.32,-198.56 117.77,-72.46 230.42,-151.58 339.55,-232.85z"/>
   <path class="fil2" d="M8497.7 9066.57c154.31,222.57 295.77,457.48 420.53,708.86 -49.35,94.64 -99.06,187.8 -159.52,271.6 -59.85,82.95 -127.55,159.46 -198.8,231.14 -199.15,-203.36 -398.99,-405.69 -599.18,-607.68 95.92,-94.31 188.34,-191.84 278.04,-292.19 89.63,-100.27 174.12,-205.76 258.93,-311.73z"/>
   <path class="fil3 str1" d="M7370.09 7970.04c213.39,164.26 417.41,337.79 614.12,518.86 -103.57,100.14 -205.49,201.91 -307.93,302.47 -102.61,100.73 -204.02,203.02 -306.89,303.16 -205.4,-196.84 -409.76,-394.72 -614.12,-592.6 97.31,-92.93 194.05,-187.68 296.46,-276.06 102.65,-88.59 209.22,-173.53 318.36,-255.83z"/>
   <path class="fil4 str2" d="M8933.45 8360.08c76.46,209.88 126.16,445.47 144.24,712.62 -10.08,133.41 -20.92,261.46 -49.01,380.66 -26.53,112.54 -69.16,217.43 -110.52,319.28 -125.12,-251.38 -266.23,-486.97 -421.24,-708.51 79.94,-110.08 161.15,-220.63 233.91,-336.42 73.6,-117.14 137.97,-241.43 202.62,-367.63z"/>
   <path class="fil5 str3" d="M6753.88 8496.45c205.05,197.18 409.41,395.06 614.47,591.91 -101.14,101.85 -204,202.66 -305.5,304.19 -101.48,101.5 -202.63,203.7 -304.46,304.86 -187.68,-187.24 -365.97,-383.06 -535.92,-587.79 83.06,-107.68 165.61,-215.17 254.41,-317.56 88.5,-102.06 183.15,-198.91 277,-295.61z"/>
   <path class="fil6" d="M8082.22 7535.88c189.07,98.76 360.06,215.71 515.07,348.76 -102.52,101.17 -203.93,203.47 -306.54,304.19 -102.44,100.57 -204.7,201.3 -306.54,302.81 -196.71,-181.75 -400.73,-355.28 -614.12,-519.54 110.87,-80.25 223.09,-160.18 341.29,-232.52 118.85,-72.73 243.63,-138.88 370.84,-203.7z"/>
   <path class="fil2" d="M6760.13 9695.7c195.33,179.7 397.95,352.2 607.87,517.84 -109.48,81.27 -222.04,160.85 -339.56,233.54 -118.14,73.07 -243.29,138.55 -373.96,199.25 -186.29,-100.14 -355.9,-215.37 -509.51,-346.37 105.3,-97.74 207.58,-198.49 309.66,-299.73 101.93,-101.09 204.71,-201.99 305.5,-304.53z"/>
   <path class="fil6" d="M7985.6 8488.9c187.68,189.99 366.67,388.21 534.19,598.43 -85.15,105.62 -169.91,211.19 -259.63,311.73 -89.62,100.43 -182.46,197.53 -278.39,292.53 -201.92,-200.96 -405.59,-399.19 -610.29,-597.06 102.87,-100.14 203.93,-202.07 306.54,-302.81 102.44,-100.56 204.36,-202.34 307.58,-302.82z"/>
   <path class="fil7 str4" d="M5791.85 8406.26c124.08,250.68 267.27,481.82 427.14,696.5 -79.24,111.8 -159.52,222.5 -232.51,339.17 -73.37,117.27 -140.07,239.71 -206.8,362.83 -83.06,-201.31 -136.23,-432.45 -151.87,-701.31 12.51,-130.32 26.75,-256.14 54.91,-374.83 26.79,-112.96 68.12,-218.8 109.13,-322.36z"/>
   <path class="fil8 str5" d="M6657.95 7541.71c250.58,127.23 484.14,270.92 707.62,425.58 -109.13,81.97 -215.72,166.89 -318.01,255.15 -102.43,88.37 -199.5,182.78 -296.46,276.06 -205.06,-197.87 -406.64,-398.15 -607.18,-599.8 75.07,-69.95 150.66,-139.98 235.99,-199.24 86.13,-59.81 179.68,-110.43 278.04,-157.75z"/>
   <path class="fil8" d="M7370.09 9088.36c204.71,197.87 408.72,396.09 610.99,596.37 -96.62,94.31 -195.25,186.3 -297.16,274.69 -102.09,88.55 -208.18,173.53 -315.92,255.83 -209.92,-165.29 -412.89,-337.45 -607.87,-517.49 101.84,-101.17 203.06,-203.62 304.81,-305.21 101.58,-101.43 204,-202.34 305.15,-304.19z"/>
   <path class="fil9" d="M6142.18 7893.22c200.89,201.3 402.82,401.58 607.87,599.11 -93.84,97.4 -188.66,193.76 -276.65,295.61 -88.63,102.6 -171.34,209.88 -254.06,317.22 -160.22,-214.67 -303.41,-445.81 -427.14,-696.85 47.27,-96.71 94.47,-191.36 153.62,-278.12 58.11,-85.25 127.2,-161.52 196.36,-236.97z"/>
  </g>
  <path class="fil10" d="M9763.64 8578.44l0 1227.15 71.03 0c179.98,0 317.57,-52.81 412.03,-158.05 94.45,-105.23 141.68,-257.33 141.68,-456.27 0,-210.48 -43.51,-365.17 -130.9,-464.09 -87.02,-99.29 -223.49,-148.74 -408.68,-148.74l-85.16 0zm-191.88 -160.65l258.45 0c259.19,0 450.7,63.22 574.9,189.65 124.2,126.43 186.3,320.92 186.3,583.83 0,249.52 -65.82,440.65 -197.09,574.53 -131.26,133.49 -319.43,200.43 -564.11,200.43l-258.45 0 0 -1548.44z"/>
  <path id="1" class="fil10" d="M11895.01 8458.32l-8.55 189.28c-50.95,-31.98 -102.64,-55.4 -154.33,-70.65 -52.06,-15.25 -105.61,-23.06 -161.01,-23.06 -156.93,0 -280.02,54.67 -368.52,164.37 -88.88,109.7 -133.13,263.28 -133.13,459.99 0,207.87 42.02,367.77 126.44,479.71 84.41,111.93 204.52,167.71 359.96,167.71 39.42,0 75.12,-3.35 107.47,-10.42 32.35,-6.69 63.59,-17.47 93.34,-31.98l0 -502.01 -256.59 0 0 -160.65 441.77 0 0 781.66c-58.01,29 -118.99,50.57 -182.58,65.08 -63.59,14.13 -130.53,21.19 -200.81,21.19 -221.63,0 -392.69,-68.79 -513.54,-206.01 -120.49,-137.22 -180.73,-333.56 -180.73,-588.29 0,-246.92 62.85,-442.14 188.54,-585.68 125.69,-143.54 296.37,-215.31 512.05,-215.31 61.73,0 120.49,5.58 176.64,16.36 55.78,10.78 107.1,27.15 153.58,48.71z"/>
  <polygon id="2" class="fil10" points="12312.82,8417.79 12594.7,8417.79 12993.33,9674.32 13390.86,8417.79 13678.31,8417.79 13678.31,9966.23 13497.58,9966.23 13497.58,8588.85 13056.55,9966.23 12920.45,9966.23 12482.39,8588.85 12482.39,9966.23 12312.82,9966.23 "/>
  <g id="_877807024">
   <path class="fil10" d="M14616.25 9028.29l0 368.15 21.31 0c53.99,0 95.27,-15.84 123.61,-47.42 28.33,-31.57 42.5,-77.19 42.5,-136.88 0,-63.14 -13.05,-109.55 -39.27,-139.22 -26.1,-29.79 -67.04,-44.63 -122.6,-44.63l-25.55 0zm-57.56 -48.19l77.53 0c77.76,0 135.21,18.97 172.47,56.9 37.26,37.93 55.89,96.27 55.89,175.14 0,74.86 -19.74,132.2 -59.12,172.36 -39.38,40.05 -95.83,60.13 -169.24,60.13l-77.53 0 0 -464.53z"/>
   <path id="1" class="fil10" d="M14942.9 9104.6l54.88 0 0 340.03 -54.88 0 0 -340.03zm-3.35 -137.89l60.91 0 0 65.6 -60.91 0 0 -65.6z"/>
   <path id="2" class="fil10" d="M15271.66 9251.19c0,-34.14 -6.25,-60.69 -18.74,-79.54 -12.61,-18.86 -30.24,-28.23 -52.88,-28.23 -23.32,0 -40.83,10.71 -52.66,32.02 -11.71,21.31 -17.62,53.1 -17.62,95.38 0,42.39 5.91,74.41 17.62,95.94 11.83,21.53 29.34,32.35 52.66,32.35 22.64,0 40.27,-9.37 52.88,-28.22 12.49,-18.85 18.74,-45.63 18.74,-80.21l0 -39.49zm4.24 -96.39c0.44,-13.27 0.89,-23.65 1.34,-31.01 0.44,-7.36 0.89,-13.72 1.33,-19.19l51.54 0c-0.78,19.86 -1.56,37.71 -2.11,53.55 -0.56,15.84 -0.79,27.44 -0.79,34.92l0 214.52c0,68.39 -11.26,116.47 -33.8,144.14 -22.64,27.66 -60.35,41.5 -113.34,41.5 -17.96,0 -34.81,-1.57 -50.76,-4.69 -15.84,-3.12 -31.35,-7.92 -46.41,-14.17l4.58 -51.87c15.28,8.7 30.34,15.17 45.29,19.19 14.95,4.01 30.68,6.02 47.3,6.02 32.91,0 56.56,-10.04 70.84,-30.12 14.28,-20.08 21.42,-53.55 21.42,-100.51 0,-2.35 -0.11,-6.03 -0.34,-11.05 -0.22,-5.02 -0.33,-8.92 -0.33,-11.82 -10.04,17.51 -21.76,30.23 -35.14,38.26 -13.39,8.14 -29.34,12.16 -47.97,12.16 -38.49,0 -67.83,-14.61 -87.8,-43.95 -19.97,-29.34 -29.9,-72.41 -29.9,-129.3 0,-55.89 10.04,-98.84 30.24,-128.74 20.19,-29.78 49.08,-44.73 86.9,-44.73 19.41,0 36.03,4.57 49.98,13.61 13.94,9.03 26.66,23.42 37.93,43.28z"/>
   <path id="3" class="fil10" d="M15420.37 9104.6l54.88 0 0 340.03 -54.88 0 0 -340.03zm-3.35 -137.89l60.91 0 0 65.6 -60.91 0 0 -65.6z"/>
   <path id="4" class="fil10" d="M15629.31 9018.92l0 85.68 68.28 0 0 43.51 -68.28 0 0 192.21c0,24.43 2.79,40.72 8.48,49.09 5.69,8.25 15.84,12.38 30.46,12.38 5.35,0 10.71,-0.44 15.84,-1.34 5.13,-0.89 10.04,-2.12 14.84,-3.9l0 44.84c-8.93,2.46 -17.29,4.24 -24.99,5.47 -7.7,1.23 -15.06,1.79 -22.09,1.79 -28.78,0 -48.86,-7.37 -60.24,-22.2 -11.49,-14.84 -17.18,-45.85 -17.18,-92.93l0 -185.41 -51.54 0 0 -43.51 51.54 0 0 -68.72 54.88 -16.96z"/>
   <path id="5" class="fil10" d="M15917.25 9275.28c-3.68,-0.22 -7.81,-0.44 -12.38,-0.55 -4.58,-0.11 -11.72,-0.11 -21.2,-0.11 -33.8,0 -58.9,5.91 -75.53,17.62 -16.51,11.83 -24.76,29.79 -24.76,54 0,19.18 5.13,34.13 15.39,44.84 10.16,10.71 24.43,16.07 42.73,16.07 25.88,0 44.96,-8.59 57.34,-25.66 12.27,-17.18 18.41,-43.84 18.41,-79.99l0 -26.22zm54.89 -39.49l0 144.47c0,13.5 0.22,25.32 0.78,35.48 0.55,10.15 1.45,19.74 2.45,28.89l-51.54 0 -5.24 -40.72c-10.71,16.07 -23.54,28 -38.6,35.81 -14.95,7.7 -32.69,11.6 -53.22,11.6 -29.78,0 -53.65,-9.26 -71.5,-27.66 -17.85,-18.41 -26.78,-43.29 -26.78,-74.75 0,-37.03 13.28,-65.15 39.72,-84.34 26.44,-19.18 65.48,-28.78 117.02,-28.78 1.12,0 5.13,0.23 12.27,0.78 7.03,0.56 13.61,1.01 19.75,1.23l0 -20.64c0,-24.09 -6.03,-42.61 -18.07,-55.33 -12.16,-12.72 -29.68,-19.08 -52.77,-19.08 -16.07,0 -31.01,2.9 -44.74,8.7 -13.72,5.69 -26.21,14.28 -37.48,25.55l-6.25 -50.31c15.06,-9.15 30.9,-16.29 47.64,-21.31 16.84,-5.02 33.24,-7.47 49.31,-7.47 42.28,0 72.4,10.26 90.36,30.9 17.96,20.53 26.89,56.22 26.89,106.98z"/>
   <polygon id="6" class="fil10" points="16062.5,8945.29 16117.38,8945.29 16117.38,9444.63 16062.5,9444.63 "/>
   <path class="fil10" d="M16667.29 8992.26l-2.57 56.78c-15.28,-9.59 -30.79,-16.62 -46.29,-21.19 -15.62,-4.58 -31.68,-6.92 -48.31,-6.92 -47.07,0 -84,16.4 -110.55,49.31 -26.66,32.91 -39.94,78.98 -39.94,138 0,62.36 12.61,110.33 37.93,143.91 25.32,33.58 61.36,50.31 107.99,50.31 11.82,0 22.53,-1 32.24,-3.12 9.71,-2.01 19.08,-5.25 28,-9.6l0 -150.6 -76.97 0 0 -48.19 132.53 0 0 234.49c-17.41,8.7 -35.7,15.17 -54.78,19.52 -19.07,4.24 -39.16,6.36 -60.24,6.36 -66.49,0 -117.81,-20.63 -154.06,-61.8 -36.15,-41.16 -54.22,-100.07 -54.22,-176.49 0,-74.07 18.85,-132.64 56.56,-175.7 37.71,-43.06 88.91,-64.59 153.62,-64.59 18.52,0 36.14,1.67 52.99,4.91 16.73,3.23 32.13,8.14 46.07,14.61z"/>
   <polygon id="1" class="fil10" points="16766.36,8945.29 16821.24,8945.29 16821.24,9444.63 16766.36,9444.63 "/>
   <path id="2" class="fil10" d="M17029.75 9143.42c-24.66,0 -43.62,11.38 -56.79,34.03 -13.16,22.64 -19.74,55.11 -19.74,97.28 0,42.05 6.58,74.29 19.74,96.72 13.17,22.42 32.13,33.69 56.79,33.69 24.54,0 43.39,-11.27 56.44,-33.69 13.06,-22.43 19.64,-54.67 19.64,-96.72 0,-42.17 -6.58,-74.64 -19.64,-97.28 -13.05,-22.65 -31.9,-34.03 -56.44,-34.03zm0 -45.51c43.28,0 76.64,15.28 99.95,45.74 23.32,30.56 35.03,74.29 35.03,131.08 0,56.67 -11.71,100.29 -35.14,130.85 -23.43,30.46 -56.78,45.74 -99.84,45.74 -43.4,0 -76.87,-15.28 -100.3,-45.74 -23.42,-30.56 -35.14,-74.18 -35.14,-130.85 0,-56.67 11.72,-100.29 35.14,-130.86 23.43,-30.68 56.9,-45.96 100.3,-45.96z"/>
   <path id="3" class="fil10" d="M17294.47 9294.7c0,35.25 6.25,62.69 18.74,81.99 12.5,19.41 29.9,29.12 52.1,29.12 23.43,0 41.17,-11.05 53.1,-33.02 11.94,-21.98 17.96,-54.67 17.96,-98.06 0,-43.06 -5.91,-75.64 -17.74,-97.62 -11.93,-21.97 -29.45,-33.02 -52.76,-33.02 -22.54,0 -40.16,9.6 -52.66,28.78 -12.49,19.19 -18.74,46.41 -18.74,81.66l0 40.17zm-54.89 -349.41l54.89 0 0 204.38c9.82,-17.29 21.31,-30.23 34.58,-38.82 13.28,-8.59 28.34,-12.94 45.07,-12.94 40.5,0 70.84,14.72 90.92,44.17 20.2,29.34 30.24,73.63 30.24,132.65 0,57.56 -10.04,101.4 -30.01,131.52 -20.08,30.01 -49.09,45.07 -87.24,45.07 -19.3,0 -36.04,-4.57 -50.09,-13.61 -14.06,-9.03 -26.55,-23.42 -37.37,-43.28 0,0.78 0,2.01 0,3.57 -0.9,20.64 -1.9,36.14 -2.9,46.63l-48.09 0 0 -499.34z"/>
   <path id="4" class="fil10" d="M17730.33 9275.28c-3.68,-0.22 -7.81,-0.44 -12.38,-0.55 -4.58,-0.11 -11.72,-0.11 -21.2,-0.11 -33.8,0 -58.9,5.91 -75.53,17.62 -16.51,11.83 -24.76,29.79 -24.76,54 0,19.18 5.13,34.13 15.39,44.84 10.16,10.71 24.43,16.07 42.73,16.07 25.88,0 44.96,-8.59 57.34,-25.66 12.27,-17.18 18.41,-43.84 18.41,-79.99l0 -26.22zm54.89 -39.49l0 144.47c0,13.5 0.22,25.32 0.78,35.48 0.55,10.15 1.45,19.74 2.45,28.89l-51.54 0 -5.24 -40.72c-10.71,16.07 -23.54,28 -38.6,35.81 -14.95,7.7 -32.69,11.6 -53.22,11.6 -29.78,0 -53.65,-9.26 -71.5,-27.66 -17.85,-18.41 -26.78,-43.29 -26.78,-74.75 0,-37.03 13.28,-65.15 39.72,-84.34 26.44,-19.18 65.48,-28.78 117.02,-28.78 1.12,0 5.13,0.23 12.27,0.78 7.03,0.56 13.61,1.01 19.75,1.23l0 -20.64c0,-24.09 -6.03,-42.61 -18.07,-55.33 -12.16,-12.72 -29.68,-19.08 -52.77,-19.08 -16.07,0 -31.01,2.9 -44.74,8.7 -13.72,5.69 -26.21,14.28 -37.48,25.55l-6.25 -50.31c15.06,-9.15 30.9,-16.29 47.64,-21.31 16.84,-5.02 33.24,-7.47 49.31,-7.47 42.28,0 72.4,10.26 90.36,30.9 17.96,20.53 26.89,56.22 26.89,106.98z"/>
   <polygon id="5" class="fil10" points="17875.58,8945.29 17930.46,8945.29 17930.46,9444.63 17875.58,9444.63 "/>
   <polygon class="fil10" points="18193.9,8980.1 18278.46,8980.1 18398.05,9357.06 18517.31,8980.1 18603.54,8980.1 18603.54,9444.63 18549.32,9444.63 18549.32,9031.42 18417.02,9444.63 18376.18,9444.63 18244.77,9031.42 18244.77,9444.63 18193.9,9444.63 "/>
   <path id="1" class="fil10" d="M18862.02 9275.28c-3.68,-0.22 -7.81,-0.44 -12.38,-0.55 -4.58,-0.11 -11.72,-0.11 -21.2,-0.11 -33.8,0 -58.9,5.91 -75.53,17.62 -16.51,11.83 -24.76,29.79 -24.76,54 0,19.18 5.13,34.13 15.39,44.84 10.16,10.71 24.43,16.07 42.73,16.07 25.88,0 44.96,-8.59 57.34,-25.66 12.27,-17.18 18.41,-43.84 18.41,-79.99l0 -26.22zm54.89 -39.49l0 144.47c0,13.5 0.22,25.32 0.78,35.48 0.55,10.15 1.45,19.74 2.45,28.89l-51.54 0 -5.24 -40.72c-10.71,16.07 -23.54,28 -38.6,35.81 -14.95,7.7 -32.69,11.6 -53.22,11.6 -29.78,0 -53.65,-9.26 -71.5,-27.66 -17.85,-18.41 -26.78,-43.29 -26.78,-74.75 0,-37.03 13.28,-65.15 39.72,-84.34 26.44,-19.18 65.48,-28.78 117.02,-28.78 1.12,0 5.13,0.23 12.27,0.78 7.03,0.56 13.61,1.01 19.75,1.23l0 -20.64c0,-24.09 -6.03,-42.61 -18.07,-55.33 -12.16,-12.72 -29.68,-19.08 -52.77,-19.08 -16.07,0 -31.01,2.9 -44.74,8.7 -13.72,5.69 -26.21,14.28 -37.48,25.55l-6.25 -50.31c15.06,-9.15 30.9,-16.29 47.64,-21.31 16.84,-5.02 33.24,-7.47 49.31,-7.47 42.28,0 72.4,10.26 90.36,30.9 17.96,20.53 26.89,56.22 26.89,106.98z"/>
   <path id="2" class="fil10" d="M19153.18 9098.58l-0.33 55.55c-2.57,-0.22 -5.02,-0.44 -7.14,-0.56 -2.23,-0.11 -4.35,-0.11 -6.58,-0.11 -24.32,0 -43.06,8.37 -56.12,24.99 -13.05,16.74 -19.52,40.72 -19.52,72.07l0 194.11 -54.89 0 0 -254.91c0,-12.61 -0.22,-25.88 -0.78,-39.83 -0.55,-13.83 -1.45,-28.89 -2.45,-45.29l50.98 0c1,15.51 1.79,27.22 2.12,35.25 0.34,7.92 0.45,15.4 0.45,22.43 8.7,-21.09 20.41,-37.04 35.03,-47.64 14.72,-10.71 32.35,-16.06 52.99,-16.06l6.24 0z"/>
   <polygon id="3" class="fil10" points="19200.71,8945.29 19255.59,8945.29 19255.59,9239.59 19372.17,9104.6 19434.31,9104.6 19303.34,9254.98 19445.69,9444.63 19381.32,9444.63 19255.59,9274.62 19255.59,9444.63 19200.71,9444.63 "/>
   <path id="4" class="fil10" d="M19708.29 9289.34l-187.75 0c1.11,38.15 9.59,67.16 25.66,86.9 15.95,19.75 38.93,29.57 68.72,29.57 12.6,0 25.1,-1.79 37.59,-5.36 12.38,-3.68 25.21,-9.14 38.49,-16.62l1.34 46.86c-12.27,6.8 -25.44,11.82 -39.72,15.06 -14.28,3.23 -29.78,4.9 -46.52,4.9 -47.52,0 -83.22,-14.61 -107.2,-43.95 -23.99,-29.34 -35.93,-73.07 -35.93,-131.3 0,-54.22 11.61,-97.39 34.81,-129.41 23.2,-32.02 54.33,-48.08 93.6,-48.08 35.92,0 64.59,14.28 85.9,42.84 21.31,28.44 32.01,66.82 32.01,114.9 0,10.26 0,17.63 -0.11,21.98 -0.11,4.35 -0.44,8.25 -0.89,11.71zm-53.21 -39.49l0 -2.57c0,-34.02 -5.47,-59.9 -16.29,-77.75 -10.93,-17.85 -26.66,-26.78 -47.41,-26.78 -21.53,0 -38.27,8.93 -50.09,26.67 -11.94,17.73 -19.08,44.51 -21.42,80.43l135.21 0z"/>
   <path id="5" class="fil10" d="M19843.72 9018.92l0 85.68 68.28 0 0 43.51 -68.28 0 0 192.21c0,24.43 2.79,40.72 8.48,49.09 5.69,8.25 15.84,12.38 30.46,12.38 5.35,0 10.71,-0.44 15.84,-1.34 5.13,-0.89 10.04,-2.12 14.84,-3.9l0 44.84c-8.93,2.46 -17.29,4.24 -24.99,5.47 -7.7,1.23 -15.06,1.79 -22.09,1.79 -28.78,0 -48.86,-7.37 -60.24,-22.2 -11.49,-14.84 -17.18,-45.85 -17.18,-92.93l0 -185.41 -51.54 0 0 -43.51 51.54 0 0 -68.72 54.88 -16.96z"/>
   <path id="6" class="fil10" d="M19970.35 9104.6l54.88 0 0 340.03 -54.88 0 0 -340.03zm-3.35 -137.89l60.91 0 0 65.6 -60.91 0 0 -65.6z"/>
   <path id="7" class="fil10" d="M20352.66 9207.57l0 237.06 -55.56 0 0 -228.92c0,-23.09 -4.35,-40.38 -13.05,-51.76 -8.7,-11.49 -21.98,-17.18 -39.83,-17.18 -21.64,0 -38.71,8.25 -51.32,24.88 -12.6,16.51 -18.96,39.15 -18.96,67.94l0 2 0 203.04 -55.56 0 0 -255.02c0,-12.61 -0.22,-25.88 -0.78,-39.72 -0.55,-13.83 -1.45,-29 -2.45,-45.29l50.98 0c0.89,10.71 1.67,26.44 2.57,47.41l0 1.9c8.92,-17.74 21.3,-31.57 36.92,-41.39 15.73,-9.7 33.25,-14.61 52.66,-14.61 30.23,0 53.55,9.48 69.83,28.56 16.4,19.07 24.55,46.07 24.55,81.1z"/>
   <path id="8" class="fil10" d="M20624.3 9251.19c0,-34.14 -6.25,-60.69 -18.74,-79.54 -12.61,-18.86 -30.24,-28.23 -52.88,-28.23 -23.32,0 -40.83,10.71 -52.66,32.02 -11.71,21.31 -17.62,53.1 -17.62,95.38 0,42.39 5.91,74.41 17.62,95.94 11.83,21.53 29.34,32.35 52.66,32.35 22.64,0 40.27,-9.37 52.88,-28.22 12.49,-18.85 18.74,-45.63 18.74,-80.21l0 -39.49zm4.24 -96.39c0.44,-13.27 0.89,-23.65 1.34,-31.01 0.44,-7.36 0.89,-13.72 1.33,-19.19l51.54 0c-0.78,19.86 -1.56,37.71 -2.11,53.55 -0.56,15.84 -0.79,27.44 -0.79,34.92l0 214.52c0,68.39 -11.26,116.47 -33.8,144.14 -22.64,27.66 -60.35,41.5 -113.34,41.5 -17.96,0 -34.81,-1.57 -50.76,-4.69 -15.84,-3.12 -31.35,-7.92 -46.41,-14.17l4.58 -51.87c15.28,8.7 30.34,15.17 45.29,19.19 14.95,4.01 30.68,6.02 47.3,6.02 32.91,0 56.56,-10.04 70.84,-30.12 14.28,-20.08 21.42,-53.55 21.42,-100.51 0,-2.35 -0.11,-6.03 -0.34,-11.05 -0.22,-5.02 -0.33,-8.92 -0.33,-11.82 -10.04,17.51 -21.76,30.23 -35.14,38.26 -13.39,8.14 -29.34,12.16 -47.97,12.16 -38.49,0 -67.83,-14.61 -87.8,-43.95 -19.97,-29.34 -29.9,-72.41 -29.9,-129.3 0,-55.89 10.04,-98.84 30.24,-128.74 20.19,-29.78 49.08,-44.73 86.9,-44.73 19.41,0 36.03,4.57 49.98,13.61 13.94,9.03 26.66,23.42 37.93,43.28z"/>
  </g>
  <rect class="fil11" x="14157.48" y="8181.65" width="59.57" height="1958.91"/>
 </g>
</svg>
