<svg xmlns="http://www.w3.org/2000/svg" xmlns:xlink="http://www.w3.org/1999/xlink" xml:space="preserve" width="12520" height="5234" version="1.1" style="shape-rendering:geometricPrecision; text-rendering:geometricPrecision; image-rendering:optimizeQuality; fill-rule:evenodd; clip-rule:evenodd"><rect id="backgroundrect" width="100%" height="100%" x="0" y="0" fill="none" stroke="none"/>
 <style type="text/css">
   <![CDATA[
    .str2 {stroke:white;stroke-width:7.62;stroke-miterlimit:22.9256;stroke-opacity:0.200000}
    .str4 {stroke:white;stroke-width:7.62;stroke-miterlimit:22.9256;stroke-opacity:0.239216}
    .str0 {stroke:white;stroke-width:7.62;stroke-miterlimit:22.9256;stroke-opacity:0.290196}
    .str1 {stroke:#B3B3B3;stroke-width:7.62;stroke-miterlimit:22.9256;stroke-opacity:0.419608}
    .str3 {stroke:#D0E8E8;stroke-width:20;stroke-miterlimit:22.9256}
    .str5 {stroke:#71B9B9;stroke-width:7.62;stroke-miterlimit:22.9256}
    .fil3 {fill:#2A5252}
    .fil9 {fill:#71B9B9}
    .fil7 {fill:#99CCCC}
    .fil6 {fill:#D0E8E8}
    .fil1 {fill:white;fill-rule:nonzero}
    .fil5 {fill:white;fill-opacity:0.200000}
    .fil8 {fill:white;fill-opacity:0.239216}
    .fil2 {fill:white;fill-opacity:0.290196}
    .fil0 {fill:white;fill-opacity:0.301961}
    .fil10 {fill:#2A5252;fill-opacity:0.400000}
    .fil4 {fill:#003333;fill-opacity:0.419608}
   ]]>
  </style>
  <metadata id="CorelCorpID_0Corel-Layer"/>
  <g class="currentLayer" style=""><title>Layer 1</title>
    <path class="fil0" d="M10682.830507812501,143.75937500000146 c853.85,0 1546.05,702.66 1546.05,1569.47 c0,866.8 -692.2,1569.46 -1546.05,1569.46 c-853.85,0 -1546.05,-702.66 -1546.05,-1569.46 c0,-866.81 692.2,-1569.47 1546.05,-1569.47 z" id="svg_1"/>
    <path class="fil1" d="M409.92050781249964,525.109375 l0,2478.29 l143.44,0 c363.48,0 641.35,-106.64 832.1,-319.17 c190.75,-212.54 286.13,-519.69 286.13,-921.48 c0,-425.06 -87.87,-737.48 -264.35,-937.24 c-175.73,-200.52 -451.35,-300.4 -825.35,-300.4 l-171.97,0 zm-387.52,-324.43 l521.95,0 c523.44,0 910.2,127.67 1161.04,383.01 c250.83,255.34 376.25,648.11 376.25,1179.06 c0,503.92 -132.93,889.93 -398.03,1160.29 c-265.1,269.61 -645.11,404.79 -1139.26,404.79 l-521.95,0 l0,-3127.15 z" id="svg_2"/>
    <path id="1" class="fil1" d="M4714.300507812501,282.5393750000003 l-17.27,382.26 c-102.89,-64.59 -207.28,-111.9 -311.66,-142.69 c-105.14,-30.79 -213.29,-46.57 -325.19,-46.57 c-316.92,0 -565.5,110.4 -744.23,331.95 c-179.49,221.54 -268.86,531.7 -268.86,928.98 c0,419.81 84.86,742.73 255.34,968.78 c170.47,226.05 413.05,338.7 726.96,338.7 c79.61,0 151.7,-6.76 217.04,-21.02 c65.34,-13.52 128.42,-35.3 188.5,-64.59 l0,-1013.85 l-518.19,0 l0,-324.43 l892.19,0 l0,1578.6 c-117.16,58.58 -240.32,102.13 -368.74,131.42 c-128.42,28.54 -263.6,42.81 -405.54,42.81 c-447.59,0 -793.05,-138.93 -1037.13,-416.05 c-243.32,-277.12 -364.98,-673.65 -364.98,-1188.08 c0,-498.66 126.92,-892.93 380.75,-1182.82 c253.84,-289.88 598.55,-434.83 1034.13,-434.83 c124.66,0 243.32,11.27 356.72,33.05 c112.65,21.78 216.29,54.82 310.16,98.38 z"/>
    <polygon id="2" class="fil1" points="5558.0908203125,200.6796875 6127.3505859375,200.6796875 6932.4208984375,2738.298828125 7735.23046875,200.6796875 8315.7509765625,200.6796875 8315.7509765625,3327.830078125 7950.7705078125,3327.830078125 7950.7705078125,546.138671875 7060.0908203125,3327.830078125 6785.220703125,3327.830078125 5900.55078125,546.138671875 5900.55078125,3327.830078125 5558.0908203125,3327.830078125 "/>
    <path class="fil1" d="M115.16050781249942,4104.0093750000015 l0,736.5 l42.63,0 c108.02,0 190.6,-31.69 247.29,-94.85 c56.69,-63.16 85.03,-154.44 85.03,-273.84 c0,-126.33 -26.11,-219.17 -78.56,-278.54 c-52.23,-59.59 -134.13,-89.27 -245.28,-89.27 l-51.11,0 zm-115.16,-96.42 l155.11,0 c155.56,0 270.5,37.95 345.04,113.83 c74.55,75.88 111.82,192.61 111.82,350.4 c0,149.75 -39.51,264.47 -118.29,344.81 c-78.78,80.13 -191.71,120.3 -338.57,120.3 l-155.11,0 l0,-929.34 z" id="svg_3"/>
    <path id="1" class="fil1" d="M768.6405078125008,4256.669375000001 l109.8,0 l0,680.26 l-109.8,0 l0,-680.26 zm-6.7,-275.86 l121.86,0 l0,131.23 l-121.86,0 l0,-131.23 z"/>
    <path id="2" class="fil1" d="M1426.3605078125001,4549.929375 c0,-68.29 -12.5,-121.41 -37.49,-159.13 c-25.22,-37.72 -60.48,-56.47 -105.79,-56.47 c-46.65,0 -81.69,21.43 -105.34,64.06 c-23.44,42.63 -35.27,106.23 -35.27,190.82 c0,84.81 11.83,148.86 35.27,191.94 c23.65,43.07 58.69,64.72 105.34,64.72 c45.31,0 80.57,-18.75 105.79,-56.46 c24.99,-37.72 37.49,-91.29 37.49,-160.47 l0,-79.01 zm8.48,-192.83 c0.9,-26.56 1.79,-47.32 2.68,-62.05 c0.9,-14.73 1.79,-27.45 2.68,-38.38 l103.11,0 c-1.56,39.72 -3.12,75.43 -4.24,107.13 c-1.12,31.69 -1.56,54.9 -1.56,69.85 l0,429.18 c0,136.81 -22.54,233.01 -67.63,288.36 c-45.3,55.35 -120.74,83.02 -226.75,83.02 c-35.93,0 -69.63,-3.12 -101.55,-9.37 c-31.69,-6.25 -62.71,-15.85 -92.84,-28.35 l9.15,-103.78 c30.57,17.41 60.7,30.35 90.61,38.39 c29.91,8.03 61.38,12.05 94.63,12.05 c65.84,0 113.15,-20.09 141.72,-60.26 c28.57,-40.17 42.85,-107.13 42.85,-201.09 c0,-4.68 -0.22000000000000003,-12.05 -0.6700000000000002,-22.09 c-0.44000000000000006,-10.04 -0.6700000000000002,-17.86 -0.6700000000000002,-23.66 c-20.08,35.04 -43.52,60.48 -70.3,76.55 c-26.78,16.3 -58.7,24.33 -95.97,24.33 c-77,0 -135.69,-29.24 -175.64,-87.93 c-39.95,-58.7 -59.82,-144.85 -59.82,-258.67 c0,-111.82 20.09,-197.74 60.49,-257.56 c40.39,-59.59 98.2,-89.49 173.86,-89.49 c38.83,0 72.08,9.15 99.98,27.22 c27.9,18.08 53.34,46.87 75.88,86.6 z"/>
    <path id="3" class="fil1" d="M1723.8705078125004,4256.669375000001 l109.8,0 l0,680.26 l-109.8,0 l0,-680.26 zm-6.7,-275.86 l121.86,0 l0,131.23 l-121.86,0 l0,-131.23 z"/>
    <path id="4" class="fil1" d="M2141.890507812501,4085.2593750000015 l0,171.41 l136.59,0 l0,87.04 l-136.59,0 l0,384.54 c0,48.88 5.58,81.47 16.97,98.2 c11.38,16.52 31.69,24.78 60.93,24.78 c10.71,0 21.42,-0.9 31.69,-2.68 c10.26,-1.79 20.08,-4.24 29.68,-7.8100000000000005 l0,89.72 c-17.85,4.91 -34.59,8.48 -49.99,10.93 c-15.4,2.46 -30.13,3.5700000000000003 -44.19,3.5700000000000003 c-57.58,0 -97.76,-14.73 -120.52,-44.41 c-22.99,-29.68 -34.37,-91.73 -34.37,-185.91 l0,-370.93 l-103.11,0 l0,-87.04 l103.11,0 l0,-137.48 l109.8,-33.93 z"/>
    <path id="5" class="fil1" d="M2717.9305078125,4598.139374999999 c-7.36,-0.45 -15.620000000000001,-0.9 -24.77,-1.12 c-9.15,-0.22000000000000003 -23.44,-0.22000000000000003 -42.41,-0.22000000000000003 c-67.62,0 -117.84,11.83 -151.09,35.26 c-33.03,23.66 -49.55,59.59 -49.55,108.02 c0,38.39 10.27,68.3 30.8,89.72 c20.31,21.43 48.88,32.14 85.48,32.14 c51.78,0 89.94,-17.18 114.72,-51.33 c24.55,-34.37 36.82,-87.71 36.82,-160.02 l0,-52.45 zm109.81,-79.01 l0,289.02 c0,27.01 0.44000000000000006,50.67 1.56,70.98 c1.12,20.31 2.9,39.5 4.91,57.8 l-103.11,0 l-10.49,-81.46 c-21.43,32.14 -47.09,56.02 -77.22,71.64 c-29.91,15.4 -65.39,23.21 -106.46,23.21 c-59.59,0 -107.35,-18.52 -143.06,-55.35 c-35.71,-36.82 -53.57,-86.59 -53.57,-149.53 c0,-74.1 26.56,-130.34 79.46,-168.73 c52.89,-38.39 131.01,-57.58 234.12,-57.58 c2.23,0 10.26,0.45 24.55,1.56 c14.06,1.12 27.23,2.01 39.5,2.46 l0,-41.29 c0,-48.21 -12.05,-85.26 -36.15,-110.7 c-24.33,-25.44 -59.37,-38.16 -105.57,-38.16 c-32.14,0 -62.05,5.8 -89.5,17.4 c-27.45,11.39 -52.45,28.57 -74.99,51.11 l-12.49,-100.65 c30.12,-18.3 61.82,-32.59 95.29,-42.63 c33.71,-10.04 66.51,-14.95 98.65,-14.95 c84.59,0 144.85,20.53 180.78,61.82 c35.93,41.06 53.79,112.48 53.79,214.03 z"/>
    <polygon id="6" class="fil1" points="3008.5205078125,3937.958984375 3118.3203125,3937.958984375 3118.3203125,4936.9296875 3008.5205078125,4936.9296875 "/>
    <path class="fil1" d="M4218.490507812499,4031.9193750000013 l-5.13,113.6 c-30.58,-19.19 -61.6,-33.25 -92.62,-42.4 c-31.25,-9.15 -63.38,-13.84 -96.64,-13.84 c-94.18,0 -168.06,32.81 -221.17,98.65 c-53.34,65.84 -79.9,158.01 -79.9,276.07 c0,124.76 25.22,220.73 75.88,287.91 c50.66,67.18 122.75,100.66 216.04,100.66 c23.66,0 45.08,-2.01 64.5,-6.25 c19.42,-4.02 38.16,-10.49 56.02,-19.2 l0,-301.29 l-154,0 l0,-96.42 l265.14,0 l0,469.13 c-34.81,17.41 -71.41,30.36 -109.58,39.06 c-38.16,8.48 -78.34,12.72 -120.52,12.72 c-133.01,0 -235.68,-41.29 -308.21,-123.64 c-72.31,-82.36 -108.47,-200.2 -108.47,-353.08 c0,-148.19 37.72,-265.36 113.15,-351.51 c75.44,-86.15 177.88,-129.23 307.33,-129.23 c37.05,0 72.31,3.35 106.01,9.82 c33.48,6.48 64.28,16.3 92.17,29.24 z" id="svg_4"/>
    <polygon id="1" class="fil1" points="4416.6806640625,3937.958984375 4526.48046875,3937.958984375 4526.48046875,4936.9296875 4416.6806640625,4936.9296875 "/>
    <path id="2" class="fil1" d="M4943.6205078125,4334.329375000001 c-49.33,0 -87.27,22.77 -113.6,68.08 c-26.34,45.3 -39.51,110.25 -39.51,194.61 c0,84.14 13.17,148.64 39.51,193.5 c26.33,44.86 64.27,67.4 113.6,67.4 c49.1,0 86.82,-22.54 112.93,-67.4 c26.11,-44.86 39.28,-109.36 39.28,-193.5 c0,-84.36 -13.17,-149.31 -39.28,-194.61 c-26.11,-45.31 -63.83,-68.08 -112.93,-68.08 zm0,-91.05 c86.59,0 153.32,30.57 199.97,91.5 c46.65,61.15 70.08,148.64 70.08,262.24 c0,113.38 -23.43,200.64 -70.3,261.8 c-46.87,60.92 -113.6,91.5 -199.75,91.5 c-86.82,0 -153.78,-30.58 -200.64,-91.5 c-46.87,-61.16 -70.31,-148.42 -70.31,-261.8 c0,-113.38 23.44,-200.64 70.31,-261.79 c46.86,-61.38 113.82,-91.95 200.64,-91.95 z"/>
    <path id="3" class="fil1" d="M5473.230507812499,4636.969375000001 c0,70.53 12.5,125.43 37.5,164.04 c24.99,38.84 59.81,58.25 104.22,58.25 c46.87,0 82.36,-22.09 106.24,-66.06 c23.88,-43.97 35.93,-109.36 35.93,-196.18 c0,-86.15 -11.83,-151.32 -35.48,-195.28 c-23.89,-43.97 -58.93,-66.07 -105.57,-66.07 c-45.08,0 -80.35,19.2 -105.34,57.59 c-25,38.38 -37.5,92.84 -37.5,163.37 l0,80.34 zm-109.8,-699.01 l109.8,0 l0,408.87 c19.64,-34.59 42.63,-60.48 69.19,-77.66 c26.56,-17.19 56.69,-25.89 90.17,-25.89 c81.01,0 141.72,29.46 181.89,88.38 c40.4,58.69 60.48,147.3 60.48,265.36 c0,115.16 -20.08,202.88 -60.03,263.13 c-40.18,60.04 -98.2,90.17 -174.53,90.17 c-38.61,0 -72.09,-9.15 -100.21,-27.23 c-28.12,-18.08 -53.12,-46.87 -74.77,-86.59 c0,1.56 0,4.01 0,7.14 c-1.78,41.29 -3.79,72.31 -5.8,93.29 l-96.19,0 l0,-998.97 z"/>
    <path id="4" class="fil1" d="M6345.2105078125005,4598.139374999999 c-7.36,-0.45 -15.620000000000001,-0.9 -24.77,-1.12 c-9.15,-0.22000000000000003 -23.44,-0.22000000000000003 -42.41,-0.22000000000000003 c-67.62,0 -117.84,11.83 -151.09,35.26 c-33.03,23.66 -49.55,59.59 -49.55,108.02 c0,38.39 10.27,68.3 30.8,89.72 c20.31,21.43 48.88,32.14 85.48,32.14 c51.78,0 89.94,-17.18 114.72,-51.33 c24.55,-34.37 36.82,-87.71 36.82,-160.02 l0,-52.45 zm109.81,-79.01 l0,289.02 c0,27.01 0.44000000000000006,50.67 1.56,70.98 c1.12,20.31 2.9,39.5 4.91,57.8 l-103.11,0 l-10.49,-81.46 c-21.43,32.14 -47.09,56.02 -77.22,71.64 c-29.91,15.4 -65.39,23.21 -106.46,23.21 c-59.59,0 -107.35,-18.52 -143.06,-55.35 c-35.71,-36.82 -53.57,-86.59 -53.57,-149.53 c0,-74.1 26.56,-130.34 79.46,-168.73 c52.89,-38.39 131.01,-57.58 234.12,-57.58 c2.23,0 10.26,0.45 24.55,1.56 c14.06,1.12 27.23,2.01 39.5,2.46 l0,-41.29 c0,-48.21 -12.05,-85.26 -36.15,-110.7 c-24.33,-25.44 -59.37,-38.16 -105.57,-38.16 c-32.14,0 -62.05,5.8 -89.5,17.4 c-27.45,11.39 -52.45,28.57 -74.99,51.11 l-12.49,-100.65 c30.12,-18.3 61.82,-32.59 95.29,-42.63 c33.71,-10.04 66.51,-14.95 98.65,-14.95 c84.59,0 144.85,20.53 180.78,61.82 c35.93,41.06 53.79,112.48 53.79,214.03 z"/>
    <polygon id="5" class="fil1" points="6635.80078125,3937.958984375 6745.6005859375,3937.958984375 6745.6005859375,4936.9296875 6635.80078125,4936.9296875 "/>
    <polygon class="fil1" points="7272.630859375,4007.58984375 7441.80078125,4007.58984375 7681.05078125,4761.728515625 7919.6396484375,4007.58984375 8092.1611328125,4007.58984375 8092.1611328125,4936.9296875 7983.6904296875,4936.9296875 7983.6904296875,4110.259765625 7719.0009765625,4936.9296875 7637.310546875,4936.9296875 7374.400390625,4110.259765625 7374.400390625,4936.9296875 7272.630859375,4936.9296875 " id="svg_5"/>
    <path id="1" class="fil1" d="M8609.2705078125,4598.139374999999 c-7.36,-0.45 -15.620000000000001,-0.9 -24.77,-1.12 c-9.15,-0.22000000000000003 -23.44,-0.22000000000000003 -42.41,-0.22000000000000003 c-67.62,0 -117.84,11.83 -151.09,35.26 c-33.03,23.66 -49.55,59.59 -49.55,108.02 c0,38.39 10.27,68.3 30.8,89.72 c20.31,21.43 48.88,32.14 85.48,32.14 c51.78,0 89.94,-17.18 114.72,-51.33 c24.55,-34.37 36.82,-87.71 36.82,-160.02 l0,-52.45 zm109.81,-79.01 l0,289.02 c0,27.01 0.44000000000000006,50.67 1.56,70.98 c1.12,20.31 2.9,39.5 4.91,57.8 l-103.11,0 l-10.49,-81.46 c-21.43,32.14 -47.09,56.02 -77.22,71.64 c-29.91,15.4 -65.39,23.21 -106.46,23.21 c-59.59,0 -107.35,-18.52 -143.06,-55.35 c-35.71,-36.82 -53.57,-86.59 -53.57,-149.53 c0,-74.1 26.56,-130.34 79.46,-168.73 c52.89,-38.39 131.01,-57.58 234.12,-57.58 c2.23,0 10.26,0.45 24.55,1.56 c14.06,1.12 27.23,2.01 39.5,2.46 l0,-41.29 c0,-48.21 -12.05,-85.26 -36.15,-110.7 c-24.33,-25.44 -59.37,-38.16 -105.57,-38.16 c-32.14,0 -62.05,5.8 -89.5,17.4 c-27.45,11.39 -52.45,28.57 -74.99,51.11 l-12.49,-100.65 c30.12,-18.3 61.82,-32.59 95.29,-42.63 c33.71,-10.04 66.51,-14.95 98.65,-14.95 c84.59,0 144.85,20.53 180.78,61.82 c35.93,41.06 53.79,112.48 53.79,214.03 z" transform=""/>
    <path id="2" class="fil1" d="M9191.780507812498,4244.619374999998 l-0.6700000000000002,111.14 c-5.13,-0.45 -10.04,-0.8900000000000001 -14.28,-1.12 c-4.47,-0.22000000000000003 -8.71,-0.22000000000000003 -13.17,-0.22000000000000003 c-48.65,0 -86.15,16.74 -112.26,49.99 c-26.11,33.48 -39.06,81.47 -39.06,144.18 l0,388.34 l-109.8,0 l0,-509.97 c0,-25.22 -0.45,-51.78 -1.57,-79.68 c-1.11,-27.68 -2.9,-57.8 -4.91,-90.61 l102,0 c2.01,31.02 3.5700000000000003,54.45 4.24,70.52 c0.6700000000000002,15.85 0.8900000000000001,30.8 0.8900000000000001,44.86 c17.41,-42.18 40.84,-74.09 70.08,-95.3 c29.46,-21.42 64.72,-32.13 106.01,-32.13 l12.5,0 z" transform=""/>
    <polygon id="3" class="fil1" points="9286.8603515625,3937.958984375 9396.6611328125,3937.958984375 9396.6611328125,4526.71875 9629.8896484375,4256.669921875 9754.2001953125,4256.669921875 9492.1904296875,4557.51953125 9776.9697265625,4936.9296875 9648.1904296875,4936.9296875 9396.6611328125,4596.798828125 9396.6611328125,4936.9296875 9286.8603515625,4936.9296875 " transform=""/>
    <path id="4" class="fil1" d="M10302.3405078125,4626.2593750000015 l-375.61,0 c2.23,76.33 19.19,134.36 51.33,173.86 c31.91,39.5 77.89,59.14 137.48,59.14 c25.22,0 50.22,-3.5700000000000003 75.21,-10.71 c24.78,-7.37 50.44,-18.3 77,-33.25 l2.68,93.73 c-24.55,13.620000000000001 -50.89,23.66 -79.45,30.13 c-28.57,6.47 -59.59,9.82 -93.07,9.82 c-95.08,0 -166.5,-29.24 -214.48,-87.93 c-47.99,-58.7 -71.87,-146.19 -71.87,-262.69 c0,-108.47 23.22,-194.84 69.64,-258.89 c46.42,-64.06 108.69,-96.19 187.25,-96.19 c71.86,0 129.22,28.56 171.85,85.7 c42.63,56.91 64.05,133.69 64.05,229.88 c0,20.53 0,35.26 -0.22000000000000003,43.96 c-0.22000000000000003,8.71 -0.8900000000000001,16.52 -1.79,23.44 zm-106.45,-79.01 l0,-5.13 c0,-68.07 -10.94,-119.85 -32.59,-155.56 c-21.87,-35.71 -53.34,-53.56 -94.85,-53.56 c-43.08,0 -76.55,17.85 -100.21,53.34 c-23.88,35.48 -38.17,89.05 -42.85,160.91 l270.5,0 z" transform=""/>
    <path id="5" class="fil1" d="M10573.280507812498,4085.2593750000015 l0,171.41 l136.59,0 l0,87.04 l-136.59,0 l0,384.54 c0,48.88 5.58,81.47 16.97,98.2 c11.38,16.52 31.69,24.78 60.93,24.78 c10.71,0 21.42,-0.9 31.69,-2.68 c10.26,-1.79 20.08,-4.24 29.68,-7.8100000000000005 l0,89.72 c-17.85,4.91 -34.59,8.48 -49.99,10.93 c-15.4,2.46 -30.13,3.5700000000000003 -44.19,3.5700000000000003 c-57.58,0 -97.76,-14.73 -120.52,-44.41 c-22.99,-29.68 -34.37,-91.73 -34.37,-185.91 l0,-370.93 l-103.11,0 l0,-87.04 l103.11,0 l0,-137.48 l109.8,-33.93 z" transform=""/>
    <path id="6" class="fil1" d="M10826.600507812502,4256.669375000001 l109.8,0 l0,680.26 l-109.8,0 l0,-680.26 zm-6.7,-275.86 l121.86,0 l0,131.23 l-121.86,0 l0,-131.23 z" transform=""/>
    <path id="7" class="fil1" d="M11591.4505078125,4462.669375000001 l0,474.26 l-111.14,0 l0,-457.97 c0,-46.2 -8.71,-80.79 -26.12,-103.56 c-17.4,-22.99 -43.96,-34.37 -79.67,-34.37 c-43.3,0 -77.45,16.52 -102.67,49.77 c-25.22,33.03 -37.94,78.34 -37.94,135.92 l0,4.02 l0,406.19 l-111.14,0 l0,-510.2 c0,-25.22 -0.45,-51.78 -1.57,-79.45 c-1.11,-27.68 -2.9,-58.03 -4.91,-90.61 l102,0 c1.78,21.42 3.35,52.89 5.13,94.85 l0,3.79 c17.86,-35.48 42.63,-63.16 73.88,-82.8 c31.46,-19.41 66.5,-29.23 105.34,-29.23 c60.48,0 107.13,18.97 139.71,57.13 c32.81,38.17 49.1,92.18 49.1,162.26 z"/>
    <path id="8" class="fil1" d="M12134.900507812501,4549.929375 c0,-68.29 -12.5,-121.41 -37.49,-159.13 c-25.22,-37.72 -60.48,-56.47 -105.79,-56.47 c-46.65,0 -81.69,21.43 -105.34,64.06 c-23.44,42.63 -35.27,106.23 -35.27,190.82 c0,84.81 11.83,148.86 35.27,191.94 c23.65,43.07 58.69,64.72 105.34,64.72 c45.31,0 80.57,-18.75 105.79,-56.46 c24.99,-37.72 37.49,-91.29 37.49,-160.47 l0,-79.01 zm8.48,-192.83 c0.9,-26.56 1.79,-47.32 2.68,-62.05 c0.9,-14.73 1.79,-27.45 2.68,-38.38 l103.11,0 c-1.56,39.72 -3.12,75.43 -4.24,107.13 c-1.12,31.69 -1.56,54.9 -1.56,69.85 l0,429.18 c0,136.81 -22.54,233.01 -67.63,288.36 c-45.3,55.35 -120.74,83.02 -226.75,83.02 c-35.93,0 -69.63,-3.12 -101.55,-9.37 c-31.69,-6.25 -62.71,-15.85 -92.84,-28.35 l9.15,-103.78 c30.57,17.41 60.7,30.35 90.61,38.39 c29.91,8.03 61.38,12.05 94.63,12.05 c65.84,0 113.15,-20.09 141.72,-60.26 c28.57,-40.17 42.85,-107.13 42.85,-201.09 c0,-4.68 -0.22000000000000003,-12.05 -0.6700000000000002,-22.09 c-0.44000000000000006,-10.04 -0.6700000000000002,-17.86 -0.6700000000000002,-23.66 c-20.08,35.04 -43.52,60.48 -70.3,76.55 c-26.78,16.3 -58.7,24.33 -95.97,24.33 c-77,0 -135.69,-29.24 -175.64,-87.93 c-39.95,-58.7 -59.82,-144.85 -59.82,-258.67 c0,-111.82 20.09,-197.74 60.49,-257.56 c40.39,-59.59 98.2,-89.49 173.86,-89.49 c38.83,0 72.08,9.15 99.98,27.22 c27.9,18.08 53.34,46.87 75.88,86.6 z"/>
    <path class="fil2 str0" d="M10642.9105078125,2949.079375000001 c240.49,172.79 495.51,331.23 766.6,474.22 c-110.88,47.91 -229.14,92.72 -355.2,122.61 c-131.77,31.25 -273.75,46.02 -426.69,52.82 c-288.28,-27.17 -544.07,-87.15 -770.03,-175.05 c143.75,-66.41 281.34,-138.19 411.78,-218.44 c129.56,-79.71 253.49,-166.75 373.54,-256.16 z" id="svg_6"/>
    <path class="fil3" d="M11881.4805078125,1683.9093749999993 c169.76,244.85 325.38,503.27 462.63,779.81 c-54.29,104.12 -108.98,206.6 -175.49,298.79 c-65.84,91.25 -140.32,175.42 -218.7,254.28 c-219.08,-223.72 -438.93,-446.31 -659.16,-668.52 c105.53,-103.75 207.2,-211.03 305.87,-321.43 c98.61,-110.3 191.56,-226.36 284.85,-342.93 z" id="svg_7"/>
    <path class="fil4 str1" d="M10641.0005078125,477.609375 c234.76,180.71 459.19,371.61 675.6,570.8 c-113.94,110.17 -226.07,222.12 -338.76,332.75 c-112.88,110.82 -224.43,223.34 -337.6,333.51 c-225.97,-216.55 -450.78,-434.24 -675.6,-651.92 c107.05,-102.24 213.47,-206.47 326.14,-303.7 c112.93,-97.45 230.16,-190.89 350.22,-281.44 z" id="svg_8"/>
    <path class="fil5 str2" d="M12360.8605078125,906.6993750000001 c84.11,230.88 138.79,490.06 158.67,783.96 c-11.09,146.75 -23.01,287.62 -53.92,418.76 c-29.18,123.79 -76.08,239.19 -121.58,351.23 c-137.64,-276.54 -292.87,-535.72 -463.4,-779.43 c87.94,-121.1 177.28,-242.71 257.32,-370.09 c80.97,-128.86 151.79,-265.6 222.91,-404.43 z" id="svg_9"/>
    <path class="fil6 str3" d="M9963.1105078125,1056.7193750000006 c225.58,216.92 450.4,434.61 675.98,651.16 c-111.26,112.04 -224.42,222.95 -336.08,334.63 c-111.64,111.66 -222.91,224.09 -334.93,335.39 c-206.47,-205.99 -402.61,-421.41 -589.57,-646.63 c91.38,-118.47 182.19,-236.72 279.87,-349.35 c97.37,-112.28 201.5,-218.82 304.73,-325.2 z" id="svg_10"/>
    <path class="fil7" d="M11424.420507812501,-0.0006250000005820766 c207.99,108.65 396.1,237.3 566.63,383.67 c-112.79,111.3 -224.35,223.83 -337.23,334.64 c-112.7,110.64 -225.19,221.45 -337.22,333.12 c-216.41,-199.95 -440.84,-390.84 -675.6,-571.55 c121.97,-88.28 245.43,-176.21 375.46,-255.79 c130.75,-80.01 268.02,-152.79 407.96,-224.09 z" id="svg_11"/>
    <path class="fil3" d="M9969.990507812501,2376.0093750000015 c214.88,197.69 437.79,387.45 668.72,569.67 c-120.44,89.41 -244.27,176.96 -373.55,256.92 c-129.97,80.39 -267.64,152.41 -411.4,219.19 c-204.93,-110.16 -391.52,-236.92 -560.51,-381.04 c115.85,-107.52 228.36,-218.35 340.66,-329.73 c112.13,-111.21 225.2,-222.21 336.08,-335.01 z" id="svg_12"/>
    <path class="fil7" d="M11318.120507812499,1048.4093749999993 c206.47,209.01 403.37,427.07 587.66,658.34 c-93.67,116.19 -186.91,232.32 -285.61,342.93 c-98.59,110.48 -200.72,217.3 -306.25,321.81 c-222.14,-221.08 -446.19,-439.14 -671.39,-656.82 c113.17,-110.17 224.35,-222.31 337.23,-333.13 c112.69,-110.62 224.81,-222.59 338.36,-333.13 z" id="svg_13"/>
    <path class="fil8 str4" d="M8904.7905078125,957.4993749999994 c136.5,275.78 294.02,530.05 469.9,766.22 c-87.18,122.99 -175.49,244.77 -255.79,373.12 c-80.71,129.01 -154.08,263.7 -227.49,399.14 c-91.38,-221.45 -149.88,-475.73 -167.08,-771.51 c13.76,-143.36 29.43,-281.77 60.4,-412.35 c29.48,-124.26 74.95,-240.69 120.06,-354.62 z" id="svg_14"/>
    <path class="fil9 str5" d="M9857.5905078125,6.409374999999272 c275.66,139.97 532.59,298.04 778.44,468.19 c-120.06,90.16 -237.31,183.59 -349.84,280.68 c-112.68,97.22 -219.47,201.08 -326.14,303.7 c-225.58,-217.68 -447.33,-438 -667.95,-659.84 c82.59,-76.96 165.74,-153.99 259.61,-219.18 c94.75,-65.8 197.67,-121.49 305.88,-173.55 z" id="svg_15"/>
    <path class="fil9" d="M10641.0005078125,1707.8793750000004 c225.2,217.68 449.64,435.74 672.15,656.06 c-106.29,103.75 -214.79,204.95 -326.9,302.19 c-112.31,97.41 -229.02,190.89 -347.54,281.44 c-230.93,-181.84 -454.22,-371.23 -668.72,-569.29 c112.03,-111.3 223.39,-224 335.32,-335.77 c111.75,-111.58 224.43,-222.59 335.69,-334.63 z" id="svg_16"/>
    <path class="fil10" d="M9290.190507812498,393.109375 c220.99,221.45 443.14,441.77 668.72,659.08 c-103.24,107.14 -207.55,213.15 -304.35,325.2 c-97.5,112.86 -188.49,230.89 -279.49,348.97 c-176.26,-236.16 -333.78,-490.44 -469.89,-766.6 c52,-106.39 103.92,-210.52 168.99,-305.96 c63.93,-93.78 139.93,-177.69 216.02,-260.69 z" id="svg_17"/>
  </g>
</svg>