<svg xmlns="http://www.w3.org/2000/svg" xmlns:xlink="http://www.w3.org/1999/xlink" xml:space="preserve" width="15055" height="3271" version="1.1" style="shape-rendering:geometricPrecision; text-rendering:geometricPrecision; image-rendering:optimizeQuality; fill-rule:evenodd; clip-rule:evenodd"><rect id="backgroundrect" width="100%" height="100%" x="0" y="0" fill="none" stroke="none"/>
 <defs>
  <style type="text/css">
   <![CDATA[
    .str2 {stroke:white;stroke-width:7.62;stroke-miterlimit:22.9256;stroke-opacity:0.200000}
    .str4 {stroke:white;stroke-width:7.62;stroke-miterlimit:22.9256;stroke-opacity:0.239216}
    .str0 {stroke:white;stroke-width:7.62;stroke-miterlimit:22.9256;stroke-opacity:0.290196}
    .str1 {stroke:#B3B3B3;stroke-width:7.62;stroke-miterlimit:22.9256;stroke-opacity:0.419608}
    .str3 {stroke:#D0E8E8;stroke-width:20;stroke-miterlimit:22.9256}
    .str5 {stroke:#71B9B9;stroke-width:7.62;stroke-miterlimit:22.9256}
    .fil2 {fill:#2A5252}
    .fil8 {fill:#71B9B9}
    .fil6 {fill:#99CCCC}
    .fil5 {fill:#D0E8E8}
    .fil11 {fill:white}
    .fil10 {fill:white;fill-rule:nonzero}
    .fil4 {fill:white;fill-opacity:0.200000}
    .fil7 {fill:white;fill-opacity:0.239216}
    .fil1 {fill:white;fill-opacity:0.290196}
    .fil0 {fill:white;fill-opacity:0.301961}
    .fil9 {fill:#2A5252;fill-opacity:0.400000}
    .fil3 {fill:#003333;fill-opacity:0.419608}
   ]]>
  </style>
 </defs>
 
<g class="currentLayer" style=""><title>Layer 1</title><g id="Layer_x0020_1" class="">
  <metadata id="CorelCorpID_0Corel-Layer" transform="translate(-5627.810546875,-7535.87939453125) "/>
  <g id="_877808752">
   <path class="fil0" d="M1780.2994531249997,130.6806054687504 c776.16,0 1405.38,638.73 1405.38,1426.66 c0,787.94 -629.22,1426.67 -1405.38,1426.67 c-776.16,0 -1405.38,-638.73 -1405.38,-1426.67 c0,-787.93 629.22,-1426.66 1405.38,-1426.66 z" id="svg_1"/>
   <path class="fil1 str0" d="M1744.0094531249997,2680.750605468749 c218.61,157.06 450.43,301.09 696.85,431.06 c-100.79,43.56 -208.29,84.29 -322.88,111.46 c-119.78,28.41 -248.85,41.84 -387.87,48.01 c-262.05,-24.69 -494.57,-79.22 -699.97,-159.12 c130.68,-60.36 255.75,-125.61 374.32,-198.56 c117.77,-72.46 230.42,-151.58 339.55,-232.85 z" id="svg_2"/>
   <path class="fil2" d="M2869.8894531250007,1530.6906054687497 c154.31,222.57 295.77,457.48 420.53,708.86 c-49.35,94.64 -99.06,187.8 -159.52,271.6 c-59.85,82.95 -127.55,159.46 -198.8,231.14 c-199.15,-203.36 -398.99,-405.69 -599.18,-607.68 c95.92,-94.31 188.34,-191.84 278.04,-292.19 c89.63,-100.27 174.12,-205.76 258.93,-311.73 z" id="svg_3"/>
   <path class="fil3 str1" d="M1742.2794531250001,434.16060546874996 c213.39,164.26 417.41,337.79 614.12,518.86 c-103.57,100.14 -205.49,201.91 -307.93,302.47 c-102.61,100.73 -204.02,203.02 -306.89,303.16 c-205.4,-196.84 -409.76,-394.72 -614.12,-592.6 c97.31,-92.93 194.05,-187.68 296.46,-276.06 c102.65,-88.59 209.22,-173.53 318.36,-255.83 z" id="svg_4"/>
   <path class="fil4 str2" d="M3305.6394531250007,824.2006054687499 c76.46,209.88 126.16,445.47 144.24,712.62 c-10.08,133.41 -20.92,261.46 -49.01,380.66 c-26.53,112.54 -69.16,217.43 -110.52,319.28 c-125.12,-251.38 -266.23,-486.97 -421.24,-708.51 c79.94,-110.08 161.15,-220.63 233.91,-336.42 c73.6,-117.14 137.97,-241.43 202.62,-367.63 z" id="svg_5"/>
   <path class="fil5 str3" d="M1126.069453125,960.5706054687507 c205.05,197.18 409.41,395.06 614.47,591.91 c-101.14,101.85 -204,202.66 -305.5,304.19 c-101.48,101.5 -202.63,203.7 -304.46,304.86 c-187.68,-187.24 -365.97,-383.06 -535.92,-587.79 c83.06,-107.68 165.61,-215.17 254.41,-317.56 c88.5,-102.06 183.15,-198.91 277,-295.61 z" id="svg_6"/>
   <path class="fil6" d="M2454.4094531250003,0.0006054687501091394 c189.07,98.76 360.06,215.71 515.07,348.76 c-102.52,101.17 -203.93,203.47 -306.54,304.19 c-102.44,100.57 -204.7,201.3 -306.54,302.81 c-196.71,-181.75 -400.73,-355.28 -614.12,-519.54 c110.87,-80.25 223.09,-160.18 341.29,-232.52 c118.85,-72.73 243.63,-138.88 370.84,-203.7 z" id="svg_7"/>
   <path class="fil2" d="M1132.319453125,2159.8206054687507 c195.33,179.7 397.95,352.2 607.87,517.84 c-109.48,81.27 -222.04,160.85 -339.56,233.54 c-118.14,73.07 -243.29,138.55 -373.96,199.25 c-186.29,-100.14 -355.9,-215.37 -509.51,-346.37 c105.3,-97.74 207.58,-198.49 309.66,-299.73 c101.93,-101.09 204.71,-201.99 305.5,-304.53 z" id="svg_8"/>
   <path class="fil6" d="M2357.7894531250004,953.0206054687496 c187.68,189.99 366.67,388.21 534.19,598.43 c-85.15,105.62 -169.91,211.19 -259.63,311.73 c-89.62,100.43 -182.46,197.53 -278.39,292.53 c-201.92,-200.96 -405.59,-399.19 -610.29,-597.06 c102.87,-100.14 203.93,-202.07 306.54,-302.81 c102.44,-100.56 204.36,-202.34 307.58,-302.82 z" id="svg_9"/>
   <path class="fil7 str4" d="M164.03945312500036,870.3806054687502 c124.08,250.68 267.27,481.82 427.14,696.5 c-79.24,111.8 -159.52,222.5 -232.51,339.17 c-73.37,117.27 -140.07,239.71 -206.8,362.83 c-83.06,-201.31 -136.23,-432.45 -151.87,-701.31 c12.51,-130.32 26.75,-256.14 54.91,-374.83 c26.79,-112.96 68.12,-218.8 109.13,-322.36 z" id="svg_10"/>
   <path class="fil8 str5" d="M1030.1394531249998,5.830605468750036 c250.58,127.23 484.14,270.92 707.62,425.58 c-109.13,81.97 -215.72,166.89 -318.01,255.15 c-102.43,88.37 -199.5,182.78 -296.46,276.06 c-205.06,-197.87 -406.64,-398.15 -607.18,-599.8 c75.07,-69.95 150.66,-139.98 235.99,-199.24 c86.13,-59.81 179.68,-110.43 278.04,-157.75 z" id="svg_11"/>
   <path class="fil8" d="M1742.2794531250001,1552.4806054687506 c204.71,197.87 408.72,396.09 610.99,596.37 c-96.62,94.31 -195.25,186.3 -297.16,274.69 c-102.09,88.55 -208.18,173.53 -315.92,255.83 c-209.92,-165.29 -412.89,-337.45 -607.87,-517.49 c101.84,-101.17 203.06,-203.62 304.81,-305.21 c101.58,-101.43 204,-202.34 305.15,-304.19 z" id="svg_12"/>
   <path class="fil9" d="M514.3694531250003,357.34060546875025 c200.89,201.3 402.82,401.58 607.87,599.11 c-93.84,97.4 -188.66,193.76 -276.65,295.61 c-88.63,102.6 -171.34,209.88 -254.06,317.22 c-160.22,-214.67 -303.41,-445.81 -427.14,-696.85 c47.27,-96.71 94.47,-191.36 153.62,-278.12 c58.11,-85.25 127.2,-161.52 196.36,-236.97 z" id="svg_13"/>
  </g>
  <path class="fil10" d="M4135.829453124999,1042.5606054687505 l0,1227.15 l71.03,0 c179.98,0 317.57,-52.81 412.03,-158.05 c94.45,-105.23 141.68,-257.33 141.68,-456.27 c0,-210.48 -43.51,-365.17 -130.9,-464.09 c-87.02,-99.29 -223.49,-148.74 -408.68,-148.74 l-85.16,0 zm-191.88,-160.65 l258.45,0 c259.19,0 450.7,63.22 574.9,189.65 c124.2,126.43 186.3,320.92 186.3,583.83 c0,249.52 -65.82,440.65 -197.09,574.53 c-131.26,133.49 -319.43,200.43 -564.11,200.43 l-258.45,0 l0,-1548.44 z" id="svg_14"/>
  <path id="1" class="fil10" d="M6267.199453125,922.4406054687497 l-8.55,189.28 c-50.95,-31.98 -102.64,-55.4 -154.33,-70.65 c-52.06,-15.25 -105.61,-23.06 -161.01,-23.06 c-156.93,0 -280.02,54.67 -368.52,164.37 c-88.88,109.7 -133.13,263.28 -133.13,459.99 c0,207.87 42.02,367.77 126.44,479.71 c84.41,111.93 204.52,167.71 359.96,167.71 c39.42,0 75.12,-3.35 107.47,-10.42 c32.35,-6.69 63.59,-17.47 93.34,-31.98 l0,-502.01 l-256.59,0 l0,-160.65 l441.77,0 l0,781.66 c-58.01,29 -118.99,50.57 -182.58,65.08 c-63.59,14.13 -130.53,21.19 -200.81,21.19 c-221.63,0 -392.69,-68.79 -513.54,-206.01 c-120.49,-137.22 -180.73,-333.56 -180.73,-588.29 c0,-246.92 62.85,-442.14 188.54,-585.68 c125.69,-143.54 296.37,-215.31 512.05,-215.31 c61.73,0 120.49,5.58 176.64,16.36 c55.78,10.78 107.1,27.15 153.58,48.71 z"/>
  <polygon id="2" class="fil10" points="6685.009765625,881.91064453125 6966.8896484375,881.91064453125 7365.51953125,2138.44091796875 7763.0498046875,881.91064453125 8050.4990234375,881.91064453125 8050.4990234375,2430.35107421875 7869.76953125,2430.35107421875 7869.76953125,1052.97021484375 7428.7392578125,2430.35107421875 7292.6396484375,2430.35107421875 6854.5791015625,1052.97021484375 6854.5791015625,2430.35107421875 6685.009765625,2430.35107421875 "/>
  <g id="_877807024">
   <path class="fil10" d="M8988.439453125,1492.4106054687509 l0,368.15 l21.31,0 c53.99,0 95.27,-15.84 123.61,-47.42 c28.33,-31.57 42.5,-77.19 42.5,-136.88 c0,-63.14 -13.05,-109.55 -39.27,-139.22 c-26.1,-29.79 -67.04,-44.63 -122.6,-44.63 l-25.55,0 zm-57.56,-48.19 l77.53,0 c77.76,0 135.21,18.97 172.47,56.9 c37.26,37.93 55.89,96.27 55.89,175.14 c0,74.86 -19.74,132.2 -59.12,172.36 c-39.38,40.05 -95.83,60.13 -169.24,60.13 l-77.53,0 l0,-464.53 z" id="svg_15"/>
   <path id="1" class="fil10" d="M9315.089453125,1568.7206054687504 l54.88,0 l0,340.03 l-54.88,0 l0,-340.03 zm-3.35,-137.89 l60.91,0 l0,65.6 l-60.91,0 l0,-65.6 z"/>
   <path id="2" class="fil10" d="M9643.849453125,1715.3106054687505 c0,-34.14 -6.25,-60.69 -18.74,-79.54 c-12.61,-18.86 -30.24,-28.23 -52.88,-28.23 c-23.32,0 -40.83,10.71 -52.66,32.02 c-11.71,21.31 -17.62,53.1 -17.62,95.38 c0,42.39 5.91,74.41 17.62,95.94 c11.83,21.53 29.34,32.35 52.66,32.35 c22.64,0 40.27,-9.37 52.88,-28.22 c12.49,-18.85 18.74,-45.63 18.74,-80.21 l0,-39.49 zm4.24,-96.39 c0.44000000000000006,-13.27 0.8900000000000001,-23.65 1.34,-31.01 c0.44000000000000006,-7.36 0.8900000000000001,-13.72 1.33,-19.19 l51.54,0 c-0.78,19.86 -1.56,37.71 -2.11,53.55 c-0.56,15.84 -0.79,27.44 -0.79,34.92 l0,214.52 c0,68.39 -11.26,116.47 -33.8,144.14 c-22.64,27.66 -60.35,41.5 -113.34,41.5 c-17.96,0 -34.81,-1.57 -50.76,-4.69 c-15.84,-3.12 -31.35,-7.92 -46.41,-14.17 l4.58,-51.87 c15.28,8.7 30.34,15.17 45.29,19.19 c14.95,4.01 30.68,6.02 47.3,6.02 c32.91,0 56.56,-10.04 70.84,-30.12 c14.28,-20.08 21.42,-53.55 21.42,-100.51 c0,-2.35 -0.11000000000000001,-6.03 -0.3400000000000001,-11.05 c-0.22000000000000003,-5.02 -0.33000000000000007,-8.92 -0.33000000000000007,-11.82 c-10.04,17.51 -21.76,30.23 -35.14,38.26 c-13.39,8.14 -29.34,12.16 -47.97,12.16 c-38.49,0 -67.83,-14.61 -87.8,-43.95 c-19.97,-29.34 -29.9,-72.41 -29.9,-129.3 c0,-55.89 10.04,-98.84 30.24,-128.74 c20.19,-29.78 49.08,-44.73 86.9,-44.73 c19.41,0 36.03,4.57 49.98,13.61 c13.94,9.03 26.66,23.42 37.93,43.28 z"/>
   <path id="3" class="fil10" d="M9792.559453125,1568.7206054687504 l54.88,0 l0,340.03 l-54.88,0 l0,-340.03 zm-3.35,-137.89 l60.91,0 l0,65.6 l-60.91,0 l0,-65.6 z"/>
   <path id="4" class="fil10" d="M10001.499453125,1483.04060546875 l0,85.68 l68.28,0 l0,43.51 l-68.28,0 l0,192.21 c0,24.43 2.79,40.72 8.48,49.09 c5.69,8.25 15.84,12.38 30.46,12.38 c5.35,0 10.71,-0.44000000000000006 15.84,-1.34 c5.13,-0.8900000000000001 10.04,-2.12 14.84,-3.9 l0,44.84 c-8.93,2.46 -17.29,4.24 -24.99,5.47 c-7.7,1.23 -15.06,1.79 -22.09,1.79 c-28.78,0 -48.86,-7.37 -60.24,-22.2 c-11.49,-14.84 -17.18,-45.85 -17.18,-92.93 l0,-185.41 l-51.54,0 l0,-43.51 l51.54,0 l0,-68.72 l54.88,-16.96 z"/>
   <path id="5" class="fil10" d="M10289.439453125,1739.4006054687507 c-3.68,-0.22000000000000003 -7.8100000000000005,-0.44000000000000006 -12.38,-0.55 c-4.58,-0.11000000000000001 -11.72,-0.11000000000000001 -21.2,-0.11000000000000001 c-33.8,0 -58.9,5.91 -75.53,17.62 c-16.51,11.83 -24.76,29.79 -24.76,54 c0,19.18 5.13,34.13 15.39,44.84 c10.16,10.71 24.43,16.07 42.73,16.07 c25.88,0 44.96,-8.59 57.34,-25.66 c12.27,-17.18 18.41,-43.84 18.41,-79.99 l0,-26.22 zm54.89,-39.49 l0,144.47 c0,13.5 0.22000000000000003,25.32 0.78,35.48 c0.55,10.15 1.45,19.74 2.45,28.89 l-51.54,0 l-5.24,-40.72 c-10.71,16.07 -23.54,28 -38.6,35.81 c-14.95,7.7 -32.69,11.6 -53.22,11.6 c-29.78,0 -53.65,-9.26 -71.5,-27.66 c-17.85,-18.41 -26.78,-43.29 -26.78,-74.75 c0,-37.03 13.28,-65.15 39.72,-84.34 c26.44,-19.18 65.48,-28.78 117.02,-28.78 c1.12,0 5.13,0.23 12.27,0.78 c7.03,0.56 13.61,1.01 19.75,1.23 l0,-20.64 c0,-24.09 -6.03,-42.61 -18.07,-55.33 c-12.16,-12.72 -29.68,-19.08 -52.77,-19.08 c-16.07,0 -31.01,2.9 -44.74,8.7 c-13.72,5.69 -26.21,14.28 -37.48,25.55 l-6.25,-50.31 c15.06,-9.15 30.9,-16.29 47.64,-21.31 c16.84,-5.02 33.24,-7.47 49.31,-7.47 c42.28,0 72.4,10.26 90.36,30.9 c17.96,20.53 26.89,56.22 26.89,106.98 z"/>
   <polygon id="6" class="fil10" points="10434.689453125,1409.41064453125 10489.5693359375,1409.41064453125 10489.5693359375,1908.75048828125 10434.689453125,1908.75048828125 "/>
   <path class="fil10" d="M11039.479453125,1456.3806054687502 l-2.5700000000000003,56.78 c-15.28,-9.59 -30.79,-16.62 -46.29,-21.19 c-15.620000000000001,-4.58 -31.68,-6.92 -48.31,-6.92 c-47.07,0 -84,16.4 -110.55,49.31 c-26.66,32.91 -39.94,78.98 -39.94,138 c0,62.36 12.61,110.33 37.93,143.91 c25.32,33.58 61.36,50.31 107.99,50.31 c11.82,0 22.53,-1 32.24,-3.12 c9.71,-2.01 19.08,-5.25 28,-9.6 l0,-150.6 l-76.97,0 l0,-48.19 l132.53,0 l0,234.49 c-17.41,8.7 -35.7,15.17 -54.78,19.52 c-19.07,4.24 -39.16,6.36 -60.24,6.36 c-66.49,0 -117.81,-20.63 -154.06,-61.8 c-36.15,-41.16 -54.22,-100.07 -54.22,-176.49 c0,-74.07 18.85,-132.64 56.56,-175.7 c37.71,-43.06 88.91,-64.59 153.62,-64.59 c18.52,0 36.14,1.6700000000000002 52.99,4.91 c16.73,3.23 32.13,8.14 46.07,14.61 z" id="svg_16"/>
   <polygon id="1" class="fil10" points="11138.548828125,1409.41064453125 11193.4296875,1409.41064453125 11193.4296875,1908.75048828125 11138.548828125,1908.75048828125 "/>
   <path id="2" class="fil10" d="M11401.939453125,1607.54060546875 c-24.66,0 -43.62,11.38 -56.79,34.03 c-13.16,22.64 -19.74,55.11 -19.74,97.28 c0,42.05 6.58,74.29 19.74,96.72 c13.17,22.42 32.13,33.69 56.79,33.69 c24.54,0 43.39,-11.27 56.44,-33.69 c13.06,-22.43 19.64,-54.67 19.64,-96.72 c0,-42.17 -6.58,-74.64 -19.64,-97.28 c-13.05,-22.65 -31.9,-34.03 -56.44,-34.03 zm0,-45.51 c43.28,0 76.64,15.28 99.95,45.74 c23.32,30.56 35.03,74.29 35.03,131.08 c0,56.67 -11.71,100.29 -35.14,130.85 c-23.43,30.46 -56.78,45.74 -99.84,45.74 c-43.4,0 -76.87,-15.28 -100.3,-45.74 c-23.42,-30.56 -35.14,-74.18 -35.14,-130.85 c0,-56.67 11.72,-100.29 35.14,-130.86 c23.43,-30.68 56.9,-45.96 100.3,-45.96 z"/>
   <path id="3" class="fil10" d="M11666.659453125001,1758.8206054687507 c0,35.25 6.25,62.69 18.74,81.99 c12.5,19.41 29.9,29.12 52.1,29.12 c23.43,0 41.17,-11.05 53.1,-33.02 c11.94,-21.98 17.96,-54.67 17.96,-98.06 c0,-43.06 -5.91,-75.64 -17.74,-97.62 c-11.93,-21.97 -29.45,-33.02 -52.76,-33.02 c-22.54,0 -40.16,9.6 -52.66,28.78 c-12.49,19.19 -18.74,46.41 -18.74,81.66 l0,40.17 zm-54.89,-349.41 l54.89,0 l0,204.38 c9.82,-17.29 21.31,-30.23 34.58,-38.82 c13.28,-8.59 28.34,-12.94 45.07,-12.94 c40.5,0 70.84,14.72 90.92,44.17 c20.2,29.34 30.24,73.63 30.24,132.65 c0,57.56 -10.04,101.4 -30.01,131.52 c-20.08,30.01 -49.09,45.07 -87.24,45.07 c-19.3,0 -36.04,-4.57 -50.09,-13.61 c-14.06,-9.03 -26.55,-23.42 -37.37,-43.28 c0,0.78 0,2.01 0,3.5700000000000003 c-0.9,20.64 -1.9,36.14 -2.9,46.63 l-48.09,0 l0,-499.34 z"/>
   <path id="4" class="fil10" d="M12102.519453125002,1739.4006054687507 c-3.68,-0.22000000000000003 -7.8100000000000005,-0.44000000000000006 -12.38,-0.55 c-4.58,-0.11000000000000001 -11.72,-0.11000000000000001 -21.2,-0.11000000000000001 c-33.8,0 -58.9,5.91 -75.53,17.62 c-16.51,11.83 -24.76,29.79 -24.76,54 c0,19.18 5.13,34.13 15.39,44.84 c10.16,10.71 24.43,16.07 42.73,16.07 c25.88,0 44.96,-8.59 57.34,-25.66 c12.27,-17.18 18.41,-43.84 18.41,-79.99 l0,-26.22 zm54.89,-39.49 l0,144.47 c0,13.5 0.22000000000000003,25.32 0.78,35.48 c0.55,10.15 1.45,19.74 2.45,28.89 l-51.54,0 l-5.24,-40.72 c-10.71,16.07 -23.54,28 -38.6,35.81 c-14.95,7.7 -32.69,11.6 -53.22,11.6 c-29.78,0 -53.65,-9.26 -71.5,-27.66 c-17.85,-18.41 -26.78,-43.29 -26.78,-74.75 c0,-37.03 13.28,-65.15 39.72,-84.34 c26.44,-19.18 65.48,-28.78 117.02,-28.78 c1.12,0 5.13,0.23 12.27,0.78 c7.03,0.56 13.61,1.01 19.75,1.23 l0,-20.64 c0,-24.09 -6.03,-42.61 -18.07,-55.33 c-12.16,-12.72 -29.68,-19.08 -52.77,-19.08 c-16.07,0 -31.01,2.9 -44.74,8.7 c-13.72,5.69 -26.21,14.28 -37.48,25.55 l-6.25,-50.31 c15.06,-9.15 30.9,-16.29 47.64,-21.31 c16.84,-5.02 33.24,-7.47 49.31,-7.47 c42.28,0 72.4,10.26 90.36,30.9 c17.96,20.53 26.89,56.22 26.89,106.98 z"/>
   <polygon id="5" class="fil10" points="12247.76953125,1409.41064453125 12302.650390625,1409.41064453125 12302.650390625,1908.75048828125 12247.76953125,1908.75048828125 "/>
   <polygon class="fil10" points="12566.08984375,1444.22021484375 12650.650390625,1444.22021484375 12770.240234375,1821.18017578125 12889.5,1444.22021484375 12975.728515625,1444.22021484375 12975.728515625,1908.75048828125 12921.509765625,1908.75048828125 12921.509765625,1495.54052734375 12789.208984375,1908.75048828125 12748.369140625,1908.75048828125 12616.958984375,1495.54052734375 12616.958984375,1908.75048828125 12566.08984375,1908.75048828125 " id="svg_17"/>
   <path id="1" class="fil10" d="M13234.209453125,1739.4006054687507 c-3.68,-0.22000000000000003 -7.8100000000000005,-0.44000000000000006 -12.38,-0.55 c-4.58,-0.11000000000000001 -11.72,-0.11000000000000001 -21.2,-0.11000000000000001 c-33.8,0 -58.9,5.91 -75.53,17.62 c-16.51,11.83 -24.76,29.79 -24.76,54 c0,19.18 5.13,34.13 15.39,44.84 c10.16,10.71 24.43,16.07 42.73,16.07 c25.88,0 44.96,-8.59 57.34,-25.66 c12.27,-17.18 18.41,-43.84 18.41,-79.99 l0,-26.22 zm54.89,-39.49 l0,144.47 c0,13.5 0.22000000000000003,25.32 0.78,35.48 c0.55,10.15 1.45,19.74 2.45,28.89 l-51.54,0 l-5.24,-40.72 c-10.71,16.07 -23.54,28 -38.6,35.81 c-14.95,7.7 -32.69,11.6 -53.22,11.6 c-29.78,0 -53.65,-9.26 -71.5,-27.66 c-17.85,-18.41 -26.78,-43.29 -26.78,-74.75 c0,-37.03 13.28,-65.15 39.72,-84.34 c26.44,-19.18 65.48,-28.78 117.02,-28.78 c1.12,0 5.13,0.23 12.27,0.78 c7.03,0.56 13.61,1.01 19.75,1.23 l0,-20.64 c0,-24.09 -6.03,-42.61 -18.07,-55.33 c-12.16,-12.72 -29.68,-19.08 -52.77,-19.08 c-16.07,0 -31.01,2.9 -44.74,8.7 c-13.72,5.69 -26.21,14.28 -37.48,25.55 l-6.25,-50.31 c15.06,-9.15 30.9,-16.29 47.64,-21.31 c16.84,-5.02 33.24,-7.47 49.31,-7.47 c42.28,0 72.4,10.26 90.36,30.9 c17.96,20.53 26.89,56.22 26.89,106.98 z" transform=""/>
   <path id="2" class="fil10" d="M13525.369453125,1562.70060546875 l-0.33000000000000007,55.55 c-2.5700000000000003,-0.22000000000000003 -5.02,-0.44000000000000006 -7.14,-0.56 c-2.23,-0.11000000000000001 -4.35,-0.11000000000000001 -6.58,-0.11000000000000001 c-24.32,0 -43.06,8.37 -56.12,24.99 c-13.05,16.74 -19.52,40.72 -19.52,72.07 l0,194.11 l-54.89,0 l0,-254.91 c0,-12.61 -0.22000000000000003,-25.88 -0.78,-39.83 c-0.55,-13.83 -1.45,-28.89 -2.45,-45.29 l50.98,0 c1,15.51 1.79,27.22 2.12,35.25 c0.3400000000000001,7.92 0.45,15.4 0.45,22.43 c8.7,-21.09 20.41,-37.04 35.03,-47.64 c14.72,-10.71 32.35,-16.06 52.99,-16.06 l6.24,0 z" transform=""/>
   <polygon id="3" class="fil10" points="13572.900390625,1409.41064453125 13627.779296875,1409.41064453125 13627.779296875,1703.71044921875 13744.359375,1568.72021484375 13806.5,1568.72021484375 13675.529296875,1719.10107421875 13817.87890625,1908.75048828125 13753.509765625,1908.75048828125 13627.779296875,1738.74072265625 13627.779296875,1908.75048828125 13572.900390625,1908.75048828125 " transform=""/>
   <path id="4" class="fil10" d="M14080.479453125,1753.4606054687501 l-187.75,0 c1.11,38.15 9.59,67.16 25.66,86.9 c15.95,19.75 38.93,29.57 68.72,29.57 c12.6,0 25.1,-1.79 37.59,-5.36 c12.38,-3.68 25.21,-9.14 38.49,-16.62 l1.34,46.86 c-12.27,6.8 -25.44,11.82 -39.72,15.06 c-14.28,3.23 -29.78,4.9 -46.52,4.9 c-47.52,0 -83.22,-14.61 -107.2,-43.95 c-23.99,-29.34 -35.93,-73.07 -35.93,-131.3 c0,-54.22 11.61,-97.39 34.81,-129.41 c23.2,-32.02 54.33,-48.08 93.6,-48.08 c35.92,0 64.59,14.28 85.9,42.84 c21.31,28.44 32.01,66.82 32.01,114.9 c0,10.26 0,17.63 -0.11000000000000001,21.98 c-0.11000000000000001,4.35 -0.44000000000000006,8.25 -0.8900000000000001,11.71 zm-53.21,-39.49 l0,-2.5700000000000003 c0,-34.02 -5.47,-59.9 -16.29,-77.75 c-10.93,-17.85 -26.66,-26.78 -47.41,-26.78 c-21.53,0 -38.27,8.93 -50.09,26.67 c-11.94,17.73 -19.08,44.51 -21.42,80.43 l135.21,0 z" transform=""/>
   <path id="5" class="fil10" d="M14215.909453125001,1483.04060546875 l0,85.68 l68.28,0 l0,43.51 l-68.28,0 l0,192.21 c0,24.43 2.79,40.72 8.48,49.09 c5.69,8.25 15.84,12.38 30.46,12.38 c5.35,0 10.71,-0.44000000000000006 15.84,-1.34 c5.13,-0.8900000000000001 10.04,-2.12 14.84,-3.9 l0,44.84 c-8.93,2.46 -17.29,4.24 -24.99,5.47 c-7.7,1.23 -15.06,1.79 -22.09,1.79 c-28.78,0 -48.86,-7.37 -60.24,-22.2 c-11.49,-14.84 -17.18,-45.85 -17.18,-92.93 l0,-185.41 l-51.54,0 l0,-43.51 l51.54,0 l0,-68.72 l54.88,-16.96 z" transform=""/>
   <path id="6" class="fil10" d="M14342.539453124999,1568.7206054687504 l54.88,0 l0,340.03 l-54.88,0 l0,-340.03 zm-3.35,-137.89 l60.91,0 l0,65.6 l-60.91,0 l0,-65.6 z" transform=""/>
   <path id="7" class="fil10" d="M14724.849453125,1671.6906054687497 l0,237.06 l-55.56,0 l0,-228.92 c0,-23.09 -4.35,-40.38 -13.05,-51.76 c-8.7,-11.49 -21.98,-17.18 -39.83,-17.18 c-21.64,0 -38.71,8.25 -51.32,24.88 c-12.6,16.51 -18.96,39.15 -18.96,67.94 l0,2 l0,203.04 l-55.56,0 l0,-255.02 c0,-12.61 -0.22000000000000003,-25.88 -0.78,-39.72 c-0.55,-13.83 -1.45,-29 -2.45,-45.29 l50.98,0 c0.8900000000000001,10.71 1.6700000000000002,26.44 2.5700000000000003,47.41 l0,1.9 c8.92,-17.74 21.3,-31.57 36.92,-41.39 c15.73,-9.7 33.25,-14.61 52.66,-14.61 c30.23,0 53.55,9.48 69.83,28.56 c16.4,19.07 24.55,46.07 24.55,81.1 z"/>
   <path id="8" class="fil10" d="M14996.489453125,1715.3106054687505 c0,-34.14 -6.25,-60.69 -18.74,-79.54 c-12.61,-18.86 -30.24,-28.23 -52.88,-28.23 c-23.32,0 -40.83,10.71 -52.66,32.02 c-11.71,21.31 -17.62,53.1 -17.62,95.38 c0,42.39 5.91,74.41 17.62,95.94 c11.83,21.53 29.34,32.35 52.66,32.35 c22.64,0 40.27,-9.37 52.88,-28.22 c12.49,-18.85 18.74,-45.63 18.74,-80.21 l0,-39.49 zm4.24,-96.39 c0.44000000000000006,-13.27 0.8900000000000001,-23.65 1.34,-31.01 c0.44000000000000006,-7.36 0.8900000000000001,-13.72 1.33,-19.19 l51.54,0 c-0.78,19.86 -1.56,37.71 -2.11,53.55 c-0.56,15.84 -0.79,27.44 -0.79,34.92 l0,214.52 c0,68.39 -11.26,116.47 -33.8,144.14 c-22.64,27.66 -60.35,41.5 -113.34,41.5 c-17.96,0 -34.81,-1.57 -50.76,-4.69 c-15.84,-3.12 -31.35,-7.92 -46.41,-14.17 l4.58,-51.87 c15.28,8.7 30.34,15.17 45.29,19.19 c14.95,4.01 30.68,6.02 47.3,6.02 c32.91,0 56.56,-10.04 70.84,-30.12 c14.28,-20.08 21.42,-53.55 21.42,-100.51 c0,-2.35 -0.11000000000000001,-6.03 -0.3400000000000001,-11.05 c-0.22000000000000003,-5.02 -0.33000000000000007,-8.92 -0.33000000000000007,-11.82 c-10.04,17.51 -21.76,30.23 -35.14,38.26 c-13.39,8.14 -29.34,12.16 -47.97,12.16 c-38.49,0 -67.83,-14.61 -87.8,-43.95 c-19.97,-29.34 -29.9,-72.41 -29.9,-129.3 c0,-55.89 10.04,-98.84 30.24,-128.74 c20.19,-29.78 49.08,-44.73 86.9,-44.73 c19.41,0 36.03,4.57 49.98,13.61 c13.94,9.03 26.66,23.42 37.93,43.28 z"/>
  </g>
  <rect class="fil11" x="8529.669921875" y="645.7705078125" width="59.56999969482422" height="1958.9100341796875" id="svg_18"/>
 </g></g></svg>